#N canvas -8 -8 1920 997 10;
#X obj 595 971 dac~;
#N canvas -8 -8 1920 997 9drums 0;
#N canvas 1 82 844 677 monomode 0;
#N canvas 415 379 628 478 reaonbp 0;
#X obj 23 233 *;
#X obj -85 483 *~;
#X obj -142 87 log;
#X obj -147 142 *;
#X obj -150 116 t f f;
#X obj 85 157 pow -1;
#X obj 86 135 * -1;
#X obj 63 104 t f f;
#X obj 47 190 +;
#X obj 20 149 clip 0 16;
#X obj -211 198 *;
#X obj -165 257 *;
#X obj -139 229 float;
#X obj -214 173 t f f b;
#X obj -372 170 inlet~;
#X obj 92 54 inlet;
#X obj -67 518 outlet~;
#X obj -249 62 inlet;
#X text -246 45 level (0..1);
#X obj -107 37 inlet;
#X text 90 39 ratio;
#X text -121 19 res/decay (1..10000);
#X obj -320 98 inlet;
#X text -322 79 freq;
#X obj -63 433 vcf~ 1;
#X connect 0 0 24 1;
#X connect 1 0 16 0;
#X connect 2 0 4 0;
#X connect 3 0 12 0;
#X connect 4 0 3 0;
#X connect 4 1 3 1;
#X connect 5 0 8 1;
#X connect 6 0 5 0;
#X connect 7 0 9 0;
#X connect 7 1 6 0;
#X connect 8 0 0 1;
#X connect 9 0 8 0;
#X connect 10 0 11 0;
#X connect 11 0 1 1;
#X connect 12 0 11 1;
#X connect 13 0 10 0;
#X connect 13 1 10 1;
#X connect 13 2 12 0;
#X connect 14 0 24 0;
#X connect 15 0 7 0;
#X connect 17 0 13 0;
#X connect 19 0 2 0;
#X connect 19 0 24 2;
#X connect 22 0 0 0;
#X connect 24 0 1 0;
#X restore 151 393 pd reaonbp;
#X obj 204 589 outlet~;
#X obj 205 100 inlet;
#X obj 262 102 inlet;
#X text 204 81 pitch;
#X text 262 81 params;
#X obj 184 137 mtof;
#X obj 258 323 unpack f f f f f f f f f f f f f f f;
#N canvas 419 377 628 478 reaonbp 0;
#X obj 23 233 *;
#X obj -85 483 *~;
#X obj -142 87 log;
#X obj -147 142 *;
#X obj -150 116 t f f;
#X obj 85 157 pow -1;
#X obj 86 135 * -1;
#X obj 63 104 t f f;
#X obj 47 190 +;
#X obj 20 149 clip 0 16;
#X obj -211 198 *;
#X obj -165 257 *;
#X obj -139 229 float;
#X obj -214 173 t f f b;
#X obj -372 170 inlet~;
#X obj 92 54 inlet;
#X obj -67 518 outlet~;
#X obj -249 62 inlet;
#X text -246 45 level (0..1);
#X obj -107 37 inlet;
#X text 90 39 ratio;
#X text -121 19 res/decay (1..10000);
#X obj -320 98 inlet;
#X text -322 79 freq;
#X obj -63 433 vcf~ 1;
#X connect 0 0 24 1;
#X connect 1 0 16 0;
#X connect 2 0 4 0;
#X connect 3 0 12 0;
#X connect 4 0 3 0;
#X connect 4 1 3 1;
#X connect 5 0 8 1;
#X connect 6 0 5 0;
#X connect 7 0 9 0;
#X connect 7 1 6 0;
#X connect 8 0 0 1;
#X connect 9 0 8 0;
#X connect 10 0 11 0;
#X connect 11 0 1 1;
#X connect 12 0 11 1;
#X connect 13 0 10 0;
#X connect 13 1 10 1;
#X connect 13 2 12 0;
#X connect 14 0 24 0;
#X connect 15 0 7 0;
#X connect 17 0 13 0;
#X connect 19 0 2 0;
#X connect 19 0 24 2;
#X connect 22 0 0 0;
#X connect 24 0 1 0;
#X restore 184 428 pd reaonbp;
#N canvas 417 378 628 478 reaonbp 0;
#X obj 23 233 *;
#X obj -85 483 *~;
#X obj -142 87 log;
#X obj -147 142 *;
#X obj -150 116 t f f;
#X obj 85 157 pow -1;
#X obj 86 135 * -1;
#X obj 63 104 t f f;
#X obj 47 190 +;
#X obj 20 149 clip 0 16;
#X obj -211 198 *;
#X obj -165 257 *;
#X obj -139 229 float;
#X obj -214 173 t f f b;
#X obj -372 170 inlet~;
#X obj 92 54 inlet;
#X obj -67 518 outlet~;
#X obj -249 62 inlet;
#X text -246 45 level (0..1);
#X obj -107 37 inlet;
#X text 90 39 ratio;
#X text -121 19 res/decay (1..10000);
#X obj -320 98 inlet;
#X text -322 79 freq;
#X obj -63 433 vcf~ 1;
#X connect 0 0 24 1;
#X connect 1 0 16 0;
#X connect 2 0 4 0;
#X connect 3 0 12 0;
#X connect 4 0 3 0;
#X connect 4 1 3 1;
#X connect 5 0 8 1;
#X connect 6 0 5 0;
#X connect 7 0 9 0;
#X connect 7 1 6 0;
#X connect 8 0 0 1;
#X connect 9 0 8 0;
#X connect 10 0 11 0;
#X connect 11 0 1 1;
#X connect 12 0 11 1;
#X connect 13 0 10 0;
#X connect 13 1 10 1;
#X connect 13 2 12 0;
#X connect 14 0 24 0;
#X connect 15 0 7 0;
#X connect 17 0 13 0;
#X connect 19 0 2 0;
#X connect 19 0 24 2;
#X connect 22 0 0 0;
#X connect 24 0 1 0;
#X restore 218 464 pd reaonbp;
#N canvas 419 377 628 478 reaonbp 0;
#X obj 23 233 *;
#X obj -85 483 *~;
#X obj -142 87 log;
#X obj -147 142 *;
#X obj -150 116 t f f;
#X obj 85 157 pow -1;
#X obj 86 135 * -1;
#X obj 63 104 t f f;
#X obj 47 190 +;
#X obj 20 149 clip 0 16;
#X obj -211 198 *;
#X obj -165 257 *;
#X obj -139 229 float;
#X obj -214 173 t f f b;
#X obj -372 170 inlet~;
#X obj 92 54 inlet;
#X obj -67 518 outlet~;
#X obj -249 62 inlet;
#X text -246 45 level (0..1);
#X obj -107 37 inlet;
#X text 90 39 ratio;
#X text -121 19 res/decay (1..10000);
#X obj -320 98 inlet;
#X text -322 79 freq;
#X obj -63 433 vcf~ 1;
#X connect 0 0 24 1;
#X connect 1 0 16 0;
#X connect 2 0 4 0;
#X connect 3 0 12 0;
#X connect 4 0 3 0;
#X connect 4 1 3 1;
#X connect 5 0 8 1;
#X connect 6 0 5 0;
#X connect 7 0 9 0;
#X connect 7 1 6 0;
#X connect 8 0 0 1;
#X connect 9 0 8 0;
#X connect 10 0 11 0;
#X connect 11 0 1 1;
#X connect 12 0 11 1;
#X connect 13 0 10 0;
#X connect 13 1 10 1;
#X connect 13 2 12 0;
#X connect 14 0 24 0;
#X connect 15 0 7 0;
#X connect 17 0 13 0;
#X connect 19 0 2 0;
#X connect 19 0 24 2;
#X connect 22 0 0 0;
#X connect 24 0 1 0;
#X restore 251 499 pd reaonbp;
#N canvas 419 377 628 478 reaonbp 0;
#X obj 23 233 *;
#X obj -85 483 *~;
#X obj -142 87 log;
#X obj -147 142 *;
#X obj -150 116 t f f;
#X obj 85 157 pow -1;
#X obj 86 135 * -1;
#X obj 63 104 t f f;
#X obj 47 190 +;
#X obj 20 149 clip 0 16;
#X obj -211 198 *;
#X obj -165 257 *;
#X obj -139 229 float;
#X obj -214 173 t f f b;
#X obj -372 170 inlet~;
#X obj 92 54 inlet;
#X obj -67 518 outlet~;
#X obj -249 62 inlet;
#X text -246 45 level (0..1);
#X obj -107 37 inlet;
#X text 90 39 ratio;
#X text -121 19 res/decay (1..10000);
#X obj -320 98 inlet;
#X text -322 79 freq;
#X obj -63 433 vcf~ 1;
#X connect 0 0 24 1;
#X connect 1 0 16 0;
#X connect 2 0 4 0;
#X connect 3 0 12 0;
#X connect 4 0 3 0;
#X connect 4 1 3 1;
#X connect 5 0 8 1;
#X connect 6 0 5 0;
#X connect 7 0 9 0;
#X connect 7 1 6 0;
#X connect 8 0 0 1;
#X connect 9 0 8 0;
#X connect 10 0 11 0;
#X connect 11 0 1 1;
#X connect 12 0 11 1;
#X connect 13 0 10 0;
#X connect 13 1 10 1;
#X connect 13 2 12 0;
#X connect 14 0 24 0;
#X connect 15 0 7 0;
#X connect 17 0 13 0;
#X connect 19 0 2 0;
#X connect 19 0 24 2;
#X connect 22 0 0 0;
#X connect 24 0 1 0;
#X restore 280 531 pd reaonbp;
#X obj 13 54 noise~;
#X obj 112 90 line~;
#X msg 72 38 0 10;
#X obj 114 42 float;
#X obj 90 -5 t b b f;
#X obj 99 121 *~;
#X obj 77 -42 inlet;
#X text 72 -59 trig 0..1;
#X connect 0 0 1 0;
#X connect 2 0 6 0;
#X connect 3 0 7 0;
#X connect 6 0 0 1;
#X connect 6 0 8 1;
#X connect 6 0 9 1;
#X connect 6 0 10 1;
#X connect 6 0 11 1;
#X connect 7 0 0 2;
#X connect 7 1 0 3;
#X connect 7 2 0 4;
#X connect 7 3 8 2;
#X connect 7 4 8 3;
#X connect 7 5 8 4;
#X connect 7 6 9 2;
#X connect 7 7 9 3;
#X connect 7 8 9 4;
#X connect 7 9 10 2;
#X connect 7 10 10 3;
#X connect 7 11 10 4;
#X connect 7 12 11 2;
#X connect 7 13 11 3;
#X connect 7 14 11 4;
#X connect 8 0 1 0;
#X connect 9 0 1 0;
#X connect 10 0 1 0;
#X connect 11 0 1 0;
#X connect 12 0 17 0;
#X connect 13 0 17 1;
#X connect 14 0 13 0;
#X connect 15 0 13 0;
#X connect 16 0 14 0;
#X connect 16 1 15 0;
#X connect 16 2 15 1;
#X connect 17 0 0 0;
#X connect 17 0 8 0;
#X connect 17 0 9 0;
#X connect 17 0 10 0;
#X connect 17 0 11 0;
#X connect 18 0 16 0;
#X restore -146 478 pd monomode;
#X obj 108 202 hsl 128 15 10 10000 1 1 empty empty empty -2 -8 0 10
-262144 -1 -1 0 1;
#X obj 109 185 nbx 5 14 -16 16 0 1 empty empty empty 0 -8 0 10 -262144
-1 -1 2 256;
#X obj 169 184 hsl 64 15 0 1 0 1 empty empty empty -2 -8 0 10 -262144
-1 -1 0 1;
#X obj 108 242 hsl 128 15 10 10000 1 1 empty empty empty -2 -8 0 10
-262144 -1 -1 0 1;
#X obj 109 225 nbx 5 14 -16 16 0 1 empty empty empty 0 -8 0 10 -262144
-1 -1 0 256;
#X obj 169 224 hsl 64 15 0 1 0 1 empty empty empty -2 -8 0 10 -262144
-1 -1 0 1;
#X obj 247 158 hsl 128 15 10 10000 1 1 empty empty empty -2 -8 0 10
-262144 -1 -1 12171 1;
#X obj 248 141 nbx 5 14 -16 16 0 1 empty empty empty 0 -8 0 10 -262144
-1 -1 2 256;
#X obj 308 140 hsl 64 15 0 1 0 1 empty empty empty -2 -8 0 10 -262144
-1 -1 6300 1;
#X obj 247 198 hsl 128 15 10 10000 1 1 empty empty empty -2 -8 0 10
-262144 -1 -1 0 1;
#X obj 248 181 nbx 5 14 -16 16 0 1 empty empty empty 0 -8 0 10 -262144
-1 -1 2 256;
#X obj 308 180 hsl 64 15 0 1 0 1 empty empty empty -2 -8 0 10 -262144
-1 -1 0 1;
#X obj 247 237 hsl 128 15 10 10000 1 1 empty empty empty -2 -8 0 10
-262144 -1 -1 0 1;
#X obj 248 220 nbx 5 14 -16 16 0 1 empty empty empty 0 -8 0 10 -262144
-1 -1 2 256;
#X obj 308 219 hsl 64 15 0 1 0 1 empty empty empty -2 -8 0 10 -262144
-1 -1 0 1;
#X obj 257 106 bng 10 250 50 0 empty empty rnd_r 14 7 0 10 -260097
-1 -1;
#X obj 95 419 float;
#X obj 106 452 pack f f f f f f f f f f f f f f f;
#X obj 334 106 bng 10 250 50 0 empty empty rnd_l 14 7 0 10 -260097
-1 -1;
#X obj 703 -128 / 1000;
#X obj 705 -150 random 1000;
#X obj 710 -72 / 1000;
#X obj 712 -94 random 1000;
#X obj 106 116 nbx 3 14 0 127 0 1 empty empty empty 0 -8 0 10 -262144
-1 -1 48 256;
#X obj -100 722 *~ 0.5;
#N canvas 880 122 844 672 monomode 0;
#N canvas 415 379 628 478 reaonbp 0;
#X obj 23 233 *;
#X obj -85 483 *~;
#X obj -142 87 log;
#X obj -147 142 *;
#X obj -150 116 t f f;
#X obj 85 157 pow -1;
#X obj 86 135 * -1;
#X obj 63 104 t f f;
#X obj 47 190 +;
#X obj 20 149 clip 0 16;
#X obj -211 198 *;
#X obj -165 257 *;
#X obj -139 229 float;
#X obj -214 173 t f f b;
#X obj -372 170 inlet~;
#X obj 92 54 inlet;
#X obj -67 518 outlet~;
#X obj -249 62 inlet;
#X text -246 45 level (0..1);
#X obj -107 37 inlet;
#X text 90 39 ratio;
#X text -121 19 res/decay (1..10000);
#X obj -320 98 inlet;
#X text -322 79 freq;
#X obj -63 433 vcf~ 1;
#X connect 0 0 24 1;
#X connect 1 0 16 0;
#X connect 2 0 4 0;
#X connect 3 0 12 0;
#X connect 4 0 3 0;
#X connect 4 1 3 1;
#X connect 5 0 8 1;
#X connect 6 0 5 0;
#X connect 7 0 9 0;
#X connect 7 1 6 0;
#X connect 8 0 0 1;
#X connect 9 0 8 0;
#X connect 10 0 11 0;
#X connect 11 0 1 1;
#X connect 12 0 11 1;
#X connect 13 0 10 0;
#X connect 13 1 10 1;
#X connect 13 2 12 0;
#X connect 14 0 24 0;
#X connect 15 0 7 0;
#X connect 17 0 13 0;
#X connect 19 0 2 0;
#X connect 19 0 24 2;
#X connect 22 0 0 0;
#X connect 24 0 1 0;
#X restore 151 393 pd reaonbp;
#X obj 204 589 outlet~;
#X obj 205 100 inlet;
#X obj 262 102 inlet;
#X text 204 81 pitch;
#X text 262 81 params;
#X obj 184 137 mtof;
#X obj 258 323 unpack f f f f f f f f f f f f f f f;
#N canvas 419 377 628 478 reaonbp 0;
#X obj 23 233 *;
#X obj -85 483 *~;
#X obj -142 87 log;
#X obj -147 142 *;
#X obj -150 116 t f f;
#X obj 85 157 pow -1;
#X obj 86 135 * -1;
#X obj 63 104 t f f;
#X obj 47 190 +;
#X obj 20 149 clip 0 16;
#X obj -211 198 *;
#X obj -165 257 *;
#X obj -139 229 float;
#X obj -214 173 t f f b;
#X obj -372 170 inlet~;
#X obj 92 54 inlet;
#X obj -67 518 outlet~;
#X obj -249 62 inlet;
#X text -246 45 level (0..1);
#X obj -107 37 inlet;
#X text 90 39 ratio;
#X text -121 19 res/decay (1..10000);
#X obj -320 98 inlet;
#X text -322 79 freq;
#X obj -63 433 vcf~ 1;
#X connect 0 0 24 1;
#X connect 1 0 16 0;
#X connect 2 0 4 0;
#X connect 3 0 12 0;
#X connect 4 0 3 0;
#X connect 4 1 3 1;
#X connect 5 0 8 1;
#X connect 6 0 5 0;
#X connect 7 0 9 0;
#X connect 7 1 6 0;
#X connect 8 0 0 1;
#X connect 9 0 8 0;
#X connect 10 0 11 0;
#X connect 11 0 1 1;
#X connect 12 0 11 1;
#X connect 13 0 10 0;
#X connect 13 1 10 1;
#X connect 13 2 12 0;
#X connect 14 0 24 0;
#X connect 15 0 7 0;
#X connect 17 0 13 0;
#X connect 19 0 2 0;
#X connect 19 0 24 2;
#X connect 22 0 0 0;
#X connect 24 0 1 0;
#X restore 184 428 pd reaonbp;
#N canvas 417 378 628 478 reaonbp 0;
#X obj 23 233 *;
#X obj -85 483 *~;
#X obj -142 87 log;
#X obj -147 142 *;
#X obj -150 116 t f f;
#X obj 85 157 pow -1;
#X obj 86 135 * -1;
#X obj 63 104 t f f;
#X obj 47 190 +;
#X obj 20 149 clip 0 16;
#X obj -211 198 *;
#X obj -165 257 *;
#X obj -139 229 float;
#X obj -214 173 t f f b;
#X obj -372 170 inlet~;
#X obj 92 54 inlet;
#X obj -67 518 outlet~;
#X obj -249 62 inlet;
#X text -246 45 level (0..1);
#X obj -107 37 inlet;
#X text 90 39 ratio;
#X text -121 19 res/decay (1..10000);
#X obj -320 98 inlet;
#X text -322 79 freq;
#X obj -63 433 vcf~ 1;
#X connect 0 0 24 1;
#X connect 1 0 16 0;
#X connect 2 0 4 0;
#X connect 3 0 12 0;
#X connect 4 0 3 0;
#X connect 4 1 3 1;
#X connect 5 0 8 1;
#X connect 6 0 5 0;
#X connect 7 0 9 0;
#X connect 7 1 6 0;
#X connect 8 0 0 1;
#X connect 9 0 8 0;
#X connect 10 0 11 0;
#X connect 11 0 1 1;
#X connect 12 0 11 1;
#X connect 13 0 10 0;
#X connect 13 1 10 1;
#X connect 13 2 12 0;
#X connect 14 0 24 0;
#X connect 15 0 7 0;
#X connect 17 0 13 0;
#X connect 19 0 2 0;
#X connect 19 0 24 2;
#X connect 22 0 0 0;
#X connect 24 0 1 0;
#X restore 218 464 pd reaonbp;
#N canvas 419 377 628 478 reaonbp 0;
#X obj 23 233 *;
#X obj -85 483 *~;
#X obj -142 87 log;
#X obj -147 142 *;
#X obj -150 116 t f f;
#X obj 85 157 pow -1;
#X obj 86 135 * -1;
#X obj 63 104 t f f;
#X obj 47 190 +;
#X obj 20 149 clip 0 16;
#X obj -211 198 *;
#X obj -165 257 *;
#X obj -139 229 float;
#X obj -214 173 t f f b;
#X obj -372 170 inlet~;
#X obj 92 54 inlet;
#X obj -67 518 outlet~;
#X obj -249 62 inlet;
#X text -246 45 level (0..1);
#X obj -107 37 inlet;
#X text 90 39 ratio;
#X text -121 19 res/decay (1..10000);
#X obj -320 98 inlet;
#X text -322 79 freq;
#X obj -63 433 vcf~ 1;
#X connect 0 0 24 1;
#X connect 1 0 16 0;
#X connect 2 0 4 0;
#X connect 3 0 12 0;
#X connect 4 0 3 0;
#X connect 4 1 3 1;
#X connect 5 0 8 1;
#X connect 6 0 5 0;
#X connect 7 0 9 0;
#X connect 7 1 6 0;
#X connect 8 0 0 1;
#X connect 9 0 8 0;
#X connect 10 0 11 0;
#X connect 11 0 1 1;
#X connect 12 0 11 1;
#X connect 13 0 10 0;
#X connect 13 1 10 1;
#X connect 13 2 12 0;
#X connect 14 0 24 0;
#X connect 15 0 7 0;
#X connect 17 0 13 0;
#X connect 19 0 2 0;
#X connect 19 0 24 2;
#X connect 22 0 0 0;
#X connect 24 0 1 0;
#X restore 251 499 pd reaonbp;
#N canvas 419 377 628 478 reaonbp 0;
#X obj 23 233 *;
#X obj -85 483 *~;
#X obj -142 87 log;
#X obj -147 142 *;
#X obj -150 116 t f f;
#X obj 85 157 pow -1;
#X obj 86 135 * -1;
#X obj 63 104 t f f;
#X obj 47 190 +;
#X obj 20 149 clip 0 16;
#X obj -211 198 *;
#X obj -165 257 *;
#X obj -139 229 float;
#X obj -214 173 t f f b;
#X obj -372 170 inlet~;
#X obj 92 54 inlet;
#X obj -67 518 outlet~;
#X obj -249 62 inlet;
#X text -246 45 level (0..1);
#X obj -107 37 inlet;
#X text 90 39 ratio;
#X text -121 19 res/decay (1..10000);
#X obj -320 98 inlet;
#X text -322 79 freq;
#X obj -63 433 vcf~ 1;
#X connect 0 0 24 1;
#X connect 1 0 16 0;
#X connect 2 0 4 0;
#X connect 3 0 12 0;
#X connect 4 0 3 0;
#X connect 4 1 3 1;
#X connect 5 0 8 1;
#X connect 6 0 5 0;
#X connect 7 0 9 0;
#X connect 7 1 6 0;
#X connect 8 0 0 1;
#X connect 9 0 8 0;
#X connect 10 0 11 0;
#X connect 11 0 1 1;
#X connect 12 0 11 1;
#X connect 13 0 10 0;
#X connect 13 1 10 1;
#X connect 13 2 12 0;
#X connect 14 0 24 0;
#X connect 15 0 7 0;
#X connect 17 0 13 0;
#X connect 19 0 2 0;
#X connect 19 0 24 2;
#X connect 22 0 0 0;
#X connect 24 0 1 0;
#X restore 280 531 pd reaonbp;
#X obj 13 54 noise~;
#X obj 112 90 line~;
#X msg 72 38 0 10;
#X obj 114 42 float;
#X obj 90 -5 t b b f;
#X obj 99 121 *~;
#X obj 77 -42 inlet;
#X text 72 -59 trig 0..1;
#X connect 0 0 1 0;
#X connect 2 0 6 0;
#X connect 3 0 7 0;
#X connect 6 0 0 1;
#X connect 6 0 8 1;
#X connect 6 0 9 1;
#X connect 6 0 10 1;
#X connect 6 0 11 1;
#X connect 7 0 0 2;
#X connect 7 1 0 3;
#X connect 7 2 0 4;
#X connect 7 3 8 2;
#X connect 7 4 8 3;
#X connect 7 5 8 4;
#X connect 7 6 9 2;
#X connect 7 7 9 3;
#X connect 7 8 9 4;
#X connect 7 9 10 2;
#X connect 7 10 10 3;
#X connect 7 11 10 4;
#X connect 7 12 11 2;
#X connect 7 13 11 3;
#X connect 7 14 11 4;
#X connect 8 0 1 0;
#X connect 9 0 1 0;
#X connect 10 0 1 0;
#X connect 11 0 1 0;
#X connect 12 0 17 0;
#X connect 13 0 17 1;
#X connect 14 0 13 0;
#X connect 15 0 13 0;
#X connect 16 0 14 0;
#X connect 16 1 15 0;
#X connect 16 2 15 1;
#X connect 17 0 0 0;
#X connect 17 0 8 0;
#X connect 17 0 9 0;
#X connect 17 0 10 0;
#X connect 17 0 11 0;
#X connect 18 0 16 0;
#X restore -185 414 pd monomode;
#X obj 106 136 nbx 3 14 0 127 0 1 empty empty empty 0 -8 0 10 -262144
-1 -1 51 256;
#N canvas 1 82 844 677 monomode 0;
#N canvas 415 379 628 478 reaonbp 0;
#X obj 23 233 *;
#X obj -85 483 *~;
#X obj -142 87 log;
#X obj -147 142 *;
#X obj -150 116 t f f;
#X obj 85 157 pow -1;
#X obj 86 135 * -1;
#X obj 63 104 t f f;
#X obj 47 190 +;
#X obj 20 149 clip 0 16;
#X obj -211 198 *;
#X obj -165 257 *;
#X obj -139 229 float;
#X obj -214 173 t f f b;
#X obj -372 170 inlet~;
#X obj 92 54 inlet;
#X obj -67 518 outlet~;
#X obj -249 62 inlet;
#X text -246 45 level (0..1);
#X obj -107 37 inlet;
#X text 90 39 ratio;
#X text -121 19 res/decay (1..10000);
#X obj -320 98 inlet;
#X text -322 79 freq;
#X obj -63 433 vcf~ 1;
#X connect 0 0 24 1;
#X connect 1 0 16 0;
#X connect 2 0 4 0;
#X connect 3 0 12 0;
#X connect 4 0 3 0;
#X connect 4 1 3 1;
#X connect 5 0 8 1;
#X connect 6 0 5 0;
#X connect 7 0 9 0;
#X connect 7 1 6 0;
#X connect 8 0 0 1;
#X connect 9 0 8 0;
#X connect 10 0 11 0;
#X connect 11 0 1 1;
#X connect 12 0 11 1;
#X connect 13 0 10 0;
#X connect 13 1 10 1;
#X connect 13 2 12 0;
#X connect 14 0 24 0;
#X connect 15 0 7 0;
#X connect 17 0 13 0;
#X connect 19 0 2 0;
#X connect 19 0 24 2;
#X connect 22 0 0 0;
#X connect 24 0 1 0;
#X restore 151 393 pd reaonbp;
#X obj 204 589 outlet~;
#X obj 205 100 inlet;
#X obj 262 102 inlet;
#X text 204 81 pitch;
#X text 262 81 params;
#X obj 184 137 mtof;
#X obj 258 323 unpack f f f f f f f f f f f f f f f;
#N canvas 419 377 628 478 reaonbp 0;
#X obj 23 233 *;
#X obj -85 483 *~;
#X obj -142 87 log;
#X obj -147 142 *;
#X obj -150 116 t f f;
#X obj 85 157 pow -1;
#X obj 86 135 * -1;
#X obj 63 104 t f f;
#X obj 47 190 +;
#X obj 20 149 clip 0 16;
#X obj -211 198 *;
#X obj -165 257 *;
#X obj -139 229 float;
#X obj -214 173 t f f b;
#X obj -372 170 inlet~;
#X obj 92 54 inlet;
#X obj -67 518 outlet~;
#X obj -249 62 inlet;
#X text -246 45 level (0..1);
#X obj -107 37 inlet;
#X text 90 39 ratio;
#X text -121 19 res/decay (1..10000);
#X obj -320 98 inlet;
#X text -322 79 freq;
#X obj -63 433 vcf~ 1;
#X connect 0 0 24 1;
#X connect 1 0 16 0;
#X connect 2 0 4 0;
#X connect 3 0 12 0;
#X connect 4 0 3 0;
#X connect 4 1 3 1;
#X connect 5 0 8 1;
#X connect 6 0 5 0;
#X connect 7 0 9 0;
#X connect 7 1 6 0;
#X connect 8 0 0 1;
#X connect 9 0 8 0;
#X connect 10 0 11 0;
#X connect 11 0 1 1;
#X connect 12 0 11 1;
#X connect 13 0 10 0;
#X connect 13 1 10 1;
#X connect 13 2 12 0;
#X connect 14 0 24 0;
#X connect 15 0 7 0;
#X connect 17 0 13 0;
#X connect 19 0 2 0;
#X connect 19 0 24 2;
#X connect 22 0 0 0;
#X connect 24 0 1 0;
#X restore 184 428 pd reaonbp;
#N canvas 417 378 628 478 reaonbp 0;
#X obj 23 233 *;
#X obj -85 483 *~;
#X obj -142 87 log;
#X obj -147 142 *;
#X obj -150 116 t f f;
#X obj 85 157 pow -1;
#X obj 86 135 * -1;
#X obj 63 104 t f f;
#X obj 47 190 +;
#X obj 20 149 clip 0 16;
#X obj -211 198 *;
#X obj -165 257 *;
#X obj -139 229 float;
#X obj -214 173 t f f b;
#X obj -372 170 inlet~;
#X obj 92 54 inlet;
#X obj -67 518 outlet~;
#X obj -249 62 inlet;
#X text -246 45 level (0..1);
#X obj -107 37 inlet;
#X text 90 39 ratio;
#X text -121 19 res/decay (1..10000);
#X obj -320 98 inlet;
#X text -322 79 freq;
#X obj -63 433 vcf~ 1;
#X connect 0 0 24 1;
#X connect 1 0 16 0;
#X connect 2 0 4 0;
#X connect 3 0 12 0;
#X connect 4 0 3 0;
#X connect 4 1 3 1;
#X connect 5 0 8 1;
#X connect 6 0 5 0;
#X connect 7 0 9 0;
#X connect 7 1 6 0;
#X connect 8 0 0 1;
#X connect 9 0 8 0;
#X connect 10 0 11 0;
#X connect 11 0 1 1;
#X connect 12 0 11 1;
#X connect 13 0 10 0;
#X connect 13 1 10 1;
#X connect 13 2 12 0;
#X connect 14 0 24 0;
#X connect 15 0 7 0;
#X connect 17 0 13 0;
#X connect 19 0 2 0;
#X connect 19 0 24 2;
#X connect 22 0 0 0;
#X connect 24 0 1 0;
#X restore 218 464 pd reaonbp;
#N canvas 419 377 628 478 reaonbp 0;
#X obj 23 233 *;
#X obj -85 483 *~;
#X obj -142 87 log;
#X obj -147 142 *;
#X obj -150 116 t f f;
#X obj 85 157 pow -1;
#X obj 86 135 * -1;
#X obj 63 104 t f f;
#X obj 47 190 +;
#X obj 20 149 clip 0 16;
#X obj -211 198 *;
#X obj -165 257 *;
#X obj -139 229 float;
#X obj -214 173 t f f b;
#X obj -372 170 inlet~;
#X obj 92 54 inlet;
#X obj -67 518 outlet~;
#X obj -249 62 inlet;
#X text -246 45 level (0..1);
#X obj -107 37 inlet;
#X text 90 39 ratio;
#X text -121 19 res/decay (1..10000);
#X obj -320 98 inlet;
#X text -322 79 freq;
#X obj -63 433 vcf~ 1;
#X connect 0 0 24 1;
#X connect 1 0 16 0;
#X connect 2 0 4 0;
#X connect 3 0 12 0;
#X connect 4 0 3 0;
#X connect 4 1 3 1;
#X connect 5 0 8 1;
#X connect 6 0 5 0;
#X connect 7 0 9 0;
#X connect 7 1 6 0;
#X connect 8 0 0 1;
#X connect 9 0 8 0;
#X connect 10 0 11 0;
#X connect 11 0 1 1;
#X connect 12 0 11 1;
#X connect 13 0 10 0;
#X connect 13 1 10 1;
#X connect 13 2 12 0;
#X connect 14 0 24 0;
#X connect 15 0 7 0;
#X connect 17 0 13 0;
#X connect 19 0 2 0;
#X connect 19 0 24 2;
#X connect 22 0 0 0;
#X connect 24 0 1 0;
#X restore 251 499 pd reaonbp;
#N canvas 419 377 628 478 reaonbp 0;
#X obj 23 233 *;
#X obj -85 483 *~;
#X obj -142 87 log;
#X obj -147 142 *;
#X obj -150 116 t f f;
#X obj 85 157 pow -1;
#X obj 86 135 * -1;
#X obj 63 104 t f f;
#X obj 47 190 +;
#X obj 20 149 clip 0 16;
#X obj -211 198 *;
#X obj -165 257 *;
#X obj -139 229 float;
#X obj -214 173 t f f b;
#X obj -372 170 inlet~;
#X obj 92 54 inlet;
#X obj -67 518 outlet~;
#X obj -249 62 inlet;
#X text -246 45 level (0..1);
#X obj -107 37 inlet;
#X text 90 39 ratio;
#X text -121 19 res/decay (1..10000);
#X obj -320 98 inlet;
#X text -322 79 freq;
#X obj -63 433 vcf~ 1;
#X connect 0 0 24 1;
#X connect 1 0 16 0;
#X connect 2 0 4 0;
#X connect 3 0 12 0;
#X connect 4 0 3 0;
#X connect 4 1 3 1;
#X connect 5 0 8 1;
#X connect 6 0 5 0;
#X connect 7 0 9 0;
#X connect 7 1 6 0;
#X connect 8 0 0 1;
#X connect 9 0 8 0;
#X connect 10 0 11 0;
#X connect 11 0 1 1;
#X connect 12 0 11 1;
#X connect 13 0 10 0;
#X connect 13 1 10 1;
#X connect 13 2 12 0;
#X connect 14 0 24 0;
#X connect 15 0 7 0;
#X connect 17 0 13 0;
#X connect 19 0 2 0;
#X connect 19 0 24 2;
#X connect 22 0 0 0;
#X connect 24 0 1 0;
#X restore 280 531 pd reaonbp;
#X obj 13 54 noise~;
#X obj 112 90 line~;
#X msg 72 38 0 10;
#X obj 114 42 float;
#X obj 90 -5 t b b f;
#X obj 99 121 *~;
#X obj 77 -42 inlet;
#X text 72 -59 trig 0..1;
#X connect 0 0 1 0;
#X connect 2 0 6 0;
#X connect 3 0 7 0;
#X connect 6 0 0 1;
#X connect 6 0 8 1;
#X connect 6 0 9 1;
#X connect 6 0 10 1;
#X connect 6 0 11 1;
#X connect 7 0 0 2;
#X connect 7 1 0 3;
#X connect 7 2 0 4;
#X connect 7 3 8 2;
#X connect 7 4 8 3;
#X connect 7 5 8 4;
#X connect 7 6 9 2;
#X connect 7 7 9 3;
#X connect 7 8 9 4;
#X connect 7 9 10 2;
#X connect 7 10 10 3;
#X connect 7 11 10 4;
#X connect 7 12 11 2;
#X connect 7 13 11 3;
#X connect 7 14 11 4;
#X connect 8 0 1 0;
#X connect 9 0 1 0;
#X connect 10 0 1 0;
#X connect 11 0 1 0;
#X connect 12 0 17 0;
#X connect 13 0 17 1;
#X connect 14 0 13 0;
#X connect 15 0 13 0;
#X connect 16 0 14 0;
#X connect 16 1 15 0;
#X connect 16 2 15 1;
#X connect 17 0 0 0;
#X connect 17 0 8 0;
#X connect 17 0 9 0;
#X connect 17 0 10 0;
#X connect 17 0 11 0;
#X connect 18 0 16 0;
#X restore -167 443 pd monomode;
#X obj 106 156 nbx 3 14 0 127 0 1 empty empty empty 0 -8 0 10 -262144
-1 -1 54 256;
#N canvas 1 82 844 677 monomode 0;
#N canvas 415 379 628 478 reaonbp 0;
#X obj 23 233 *;
#X obj -85 483 *~;
#X obj -142 87 log;
#X obj -147 142 *;
#X obj -150 116 t f f;
#X obj 85 157 pow -1;
#X obj 86 135 * -1;
#X obj 63 104 t f f;
#X obj 47 190 +;
#X obj 20 149 clip 0 16;
#X obj -211 198 *;
#X obj -165 257 *;
#X obj -139 229 float;
#X obj -214 173 t f f b;
#X obj -372 170 inlet~;
#X obj 92 54 inlet;
#X obj -67 518 outlet~;
#X obj -249 62 inlet;
#X text -246 45 level (0..1);
#X obj -107 37 inlet;
#X text 90 39 ratio;
#X text -121 19 res/decay (1..10000);
#X obj -320 98 inlet;
#X text -322 79 freq;
#X obj -63 433 vcf~ 1;
#X connect 0 0 24 1;
#X connect 1 0 16 0;
#X connect 2 0 4 0;
#X connect 3 0 12 0;
#X connect 4 0 3 0;
#X connect 4 1 3 1;
#X connect 5 0 8 1;
#X connect 6 0 5 0;
#X connect 7 0 9 0;
#X connect 7 1 6 0;
#X connect 8 0 0 1;
#X connect 9 0 8 0;
#X connect 10 0 11 0;
#X connect 11 0 1 1;
#X connect 12 0 11 1;
#X connect 13 0 10 0;
#X connect 13 1 10 1;
#X connect 13 2 12 0;
#X connect 14 0 24 0;
#X connect 15 0 7 0;
#X connect 17 0 13 0;
#X connect 19 0 2 0;
#X connect 19 0 24 2;
#X connect 22 0 0 0;
#X connect 24 0 1 0;
#X restore 151 393 pd reaonbp;
#X obj 204 589 outlet~;
#X obj 205 100 inlet;
#X obj 262 102 inlet;
#X text 204 81 pitch;
#X text 262 81 params;
#X obj 184 137 mtof;
#X obj 258 323 unpack f f f f f f f f f f f f f f f;
#N canvas 419 377 628 478 reaonbp 0;
#X obj 23 233 *;
#X obj -85 483 *~;
#X obj -142 87 log;
#X obj -147 142 *;
#X obj -150 116 t f f;
#X obj 85 157 pow -1;
#X obj 86 135 * -1;
#X obj 63 104 t f f;
#X obj 47 190 +;
#X obj 20 149 clip 0 16;
#X obj -211 198 *;
#X obj -165 257 *;
#X obj -139 229 float;
#X obj -214 173 t f f b;
#X obj -372 170 inlet~;
#X obj 92 54 inlet;
#X obj -67 518 outlet~;
#X obj -249 62 inlet;
#X text -246 45 level (0..1);
#X obj -107 37 inlet;
#X text 90 39 ratio;
#X text -121 19 res/decay (1..10000);
#X obj -320 98 inlet;
#X text -322 79 freq;
#X obj -63 433 vcf~ 1;
#X connect 0 0 24 1;
#X connect 1 0 16 0;
#X connect 2 0 4 0;
#X connect 3 0 12 0;
#X connect 4 0 3 0;
#X connect 4 1 3 1;
#X connect 5 0 8 1;
#X connect 6 0 5 0;
#X connect 7 0 9 0;
#X connect 7 1 6 0;
#X connect 8 0 0 1;
#X connect 9 0 8 0;
#X connect 10 0 11 0;
#X connect 11 0 1 1;
#X connect 12 0 11 1;
#X connect 13 0 10 0;
#X connect 13 1 10 1;
#X connect 13 2 12 0;
#X connect 14 0 24 0;
#X connect 15 0 7 0;
#X connect 17 0 13 0;
#X connect 19 0 2 0;
#X connect 19 0 24 2;
#X connect 22 0 0 0;
#X connect 24 0 1 0;
#X restore 184 428 pd reaonbp;
#N canvas 417 378 628 478 reaonbp 0;
#X obj 23 233 *;
#X obj -85 483 *~;
#X obj -142 87 log;
#X obj -147 142 *;
#X obj -150 116 t f f;
#X obj 85 157 pow -1;
#X obj 86 135 * -1;
#X obj 63 104 t f f;
#X obj 47 190 +;
#X obj 20 149 clip 0 16;
#X obj -211 198 *;
#X obj -165 257 *;
#X obj -139 229 float;
#X obj -214 173 t f f b;
#X obj -372 170 inlet~;
#X obj 92 54 inlet;
#X obj -67 518 outlet~;
#X obj -249 62 inlet;
#X text -246 45 level (0..1);
#X obj -107 37 inlet;
#X text 90 39 ratio;
#X text -121 19 res/decay (1..10000);
#X obj -320 98 inlet;
#X text -322 79 freq;
#X obj -63 433 vcf~ 1;
#X connect 0 0 24 1;
#X connect 1 0 16 0;
#X connect 2 0 4 0;
#X connect 3 0 12 0;
#X connect 4 0 3 0;
#X connect 4 1 3 1;
#X connect 5 0 8 1;
#X connect 6 0 5 0;
#X connect 7 0 9 0;
#X connect 7 1 6 0;
#X connect 8 0 0 1;
#X connect 9 0 8 0;
#X connect 10 0 11 0;
#X connect 11 0 1 1;
#X connect 12 0 11 1;
#X connect 13 0 10 0;
#X connect 13 1 10 1;
#X connect 13 2 12 0;
#X connect 14 0 24 0;
#X connect 15 0 7 0;
#X connect 17 0 13 0;
#X connect 19 0 2 0;
#X connect 19 0 24 2;
#X connect 22 0 0 0;
#X connect 24 0 1 0;
#X restore 218 464 pd reaonbp;
#N canvas 419 377 628 478 reaonbp 0;
#X obj 23 233 *;
#X obj -85 483 *~;
#X obj -142 87 log;
#X obj -147 142 *;
#X obj -150 116 t f f;
#X obj 85 157 pow -1;
#X obj 86 135 * -1;
#X obj 63 104 t f f;
#X obj 47 190 +;
#X obj 20 149 clip 0 16;
#X obj -211 198 *;
#X obj -165 257 *;
#X obj -139 229 float;
#X obj -214 173 t f f b;
#X obj -372 170 inlet~;
#X obj 92 54 inlet;
#X obj -67 518 outlet~;
#X obj -249 62 inlet;
#X text -246 45 level (0..1);
#X obj -107 37 inlet;
#X text 90 39 ratio;
#X text -121 19 res/decay (1..10000);
#X obj -320 98 inlet;
#X text -322 79 freq;
#X obj -63 433 vcf~ 1;
#X connect 0 0 24 1;
#X connect 1 0 16 0;
#X connect 2 0 4 0;
#X connect 3 0 12 0;
#X connect 4 0 3 0;
#X connect 4 1 3 1;
#X connect 5 0 8 1;
#X connect 6 0 5 0;
#X connect 7 0 9 0;
#X connect 7 1 6 0;
#X connect 8 0 0 1;
#X connect 9 0 8 0;
#X connect 10 0 11 0;
#X connect 11 0 1 1;
#X connect 12 0 11 1;
#X connect 13 0 10 0;
#X connect 13 1 10 1;
#X connect 13 2 12 0;
#X connect 14 0 24 0;
#X connect 15 0 7 0;
#X connect 17 0 13 0;
#X connect 19 0 2 0;
#X connect 19 0 24 2;
#X connect 22 0 0 0;
#X connect 24 0 1 0;
#X restore 251 499 pd reaonbp;
#N canvas 419 377 628 478 reaonbp 0;
#X obj 23 233 *;
#X obj -85 483 *~;
#X obj -142 87 log;
#X obj -147 142 *;
#X obj -150 116 t f f;
#X obj 85 157 pow -1;
#X obj 86 135 * -1;
#X obj 63 104 t f f;
#X obj 47 190 +;
#X obj 20 149 clip 0 16;
#X obj -211 198 *;
#X obj -165 257 *;
#X obj -139 229 float;
#X obj -214 173 t f f b;
#X obj -372 170 inlet~;
#X obj 92 54 inlet;
#X obj -67 518 outlet~;
#X obj -249 62 inlet;
#X text -246 45 level (0..1);
#X obj -107 37 inlet;
#X text 90 39 ratio;
#X text -121 19 res/decay (1..10000);
#X obj -320 98 inlet;
#X text -322 79 freq;
#X obj -63 433 vcf~ 1;
#X connect 0 0 24 1;
#X connect 1 0 16 0;
#X connect 2 0 4 0;
#X connect 3 0 12 0;
#X connect 4 0 3 0;
#X connect 4 1 3 1;
#X connect 5 0 8 1;
#X connect 6 0 5 0;
#X connect 7 0 9 0;
#X connect 7 1 6 0;
#X connect 8 0 0 1;
#X connect 9 0 8 0;
#X connect 10 0 11 0;
#X connect 11 0 1 1;
#X connect 12 0 11 1;
#X connect 13 0 10 0;
#X connect 13 1 10 1;
#X connect 13 2 12 0;
#X connect 14 0 24 0;
#X connect 15 0 7 0;
#X connect 17 0 13 0;
#X connect 19 0 2 0;
#X connect 19 0 24 2;
#X connect 22 0 0 0;
#X connect 24 0 1 0;
#X restore 280 531 pd reaonbp;
#X obj 13 54 noise~;
#X obj 112 90 line~;
#X msg 72 38 0 10;
#X obj 114 42 float;
#X obj 90 -5 t b b f;
#X obj 99 121 *~;
#X obj 77 -42 inlet;
#X text 72 -59 trig 0..1;
#X connect 0 0 1 0;
#X connect 2 0 6 0;
#X connect 3 0 7 0;
#X connect 6 0 0 1;
#X connect 6 0 8 1;
#X connect 6 0 9 1;
#X connect 6 0 10 1;
#X connect 6 0 11 1;
#X connect 7 0 0 2;
#X connect 7 1 0 3;
#X connect 7 2 0 4;
#X connect 7 3 8 2;
#X connect 7 4 8 3;
#X connect 7 5 8 4;
#X connect 7 6 9 2;
#X connect 7 7 9 3;
#X connect 7 8 9 4;
#X connect 7 9 10 2;
#X connect 7 10 10 3;
#X connect 7 11 10 4;
#X connect 7 12 11 2;
#X connect 7 13 11 3;
#X connect 7 14 11 4;
#X connect 8 0 1 0;
#X connect 9 0 1 0;
#X connect 10 0 1 0;
#X connect 11 0 1 0;
#X connect 12 0 17 0;
#X connect 13 0 17 1;
#X connect 14 0 13 0;
#X connect 15 0 13 0;
#X connect 16 0 14 0;
#X connect 16 1 15 0;
#X connect 16 2 15 1;
#X connect 17 0 0 0;
#X connect 17 0 8 0;
#X connect 17 0 9 0;
#X connect 17 0 10 0;
#X connect 17 0 11 0;
#X connect 18 0 16 0;
#X restore -76 529 pd monomode;
#X obj 153 116 nbx 3 14 0 127 0 1 empty empty empty 0 -8 0 10 -262144
-1 -1 48 256;
#N canvas 1 82 844 677 monomode 0;
#N canvas 415 379 628 478 reaonbp 0;
#X obj 23 233 *;
#X obj -85 483 *~;
#X obj -142 87 log;
#X obj -147 142 *;
#X obj -150 116 t f f;
#X obj 85 157 pow -1;
#X obj 86 135 * -1;
#X obj 63 104 t f f;
#X obj 47 190 +;
#X obj 20 149 clip 0 16;
#X obj -211 198 *;
#X obj -165 257 *;
#X obj -139 229 float;
#X obj -214 173 t f f b;
#X obj -372 170 inlet~;
#X obj 92 54 inlet;
#X obj -67 518 outlet~;
#X obj -249 62 inlet;
#X text -246 45 level (0..1);
#X obj -107 37 inlet;
#X text 90 39 ratio;
#X text -121 19 res/decay (1..10000);
#X obj -320 98 inlet;
#X text -322 79 freq;
#X obj -63 433 vcf~ 1;
#X connect 0 0 24 1;
#X connect 1 0 16 0;
#X connect 2 0 4 0;
#X connect 3 0 12 0;
#X connect 4 0 3 0;
#X connect 4 1 3 1;
#X connect 5 0 8 1;
#X connect 6 0 5 0;
#X connect 7 0 9 0;
#X connect 7 1 6 0;
#X connect 8 0 0 1;
#X connect 9 0 8 0;
#X connect 10 0 11 0;
#X connect 11 0 1 1;
#X connect 12 0 11 1;
#X connect 13 0 10 0;
#X connect 13 1 10 1;
#X connect 13 2 12 0;
#X connect 14 0 24 0;
#X connect 15 0 7 0;
#X connect 17 0 13 0;
#X connect 19 0 2 0;
#X connect 19 0 24 2;
#X connect 22 0 0 0;
#X connect 24 0 1 0;
#X restore 151 393 pd reaonbp;
#X obj 204 589 outlet~;
#X obj 205 100 inlet;
#X obj 262 102 inlet;
#X text 204 81 pitch;
#X text 262 81 params;
#X obj 184 137 mtof;
#X obj 258 323 unpack f f f f f f f f f f f f f f f;
#N canvas 419 377 628 478 reaonbp 0;
#X obj 23 233 *;
#X obj -85 483 *~;
#X obj -142 87 log;
#X obj -147 142 *;
#X obj -150 116 t f f;
#X obj 85 157 pow -1;
#X obj 86 135 * -1;
#X obj 63 104 t f f;
#X obj 47 190 +;
#X obj 20 149 clip 0 16;
#X obj -211 198 *;
#X obj -165 257 *;
#X obj -139 229 float;
#X obj -214 173 t f f b;
#X obj -372 170 inlet~;
#X obj 92 54 inlet;
#X obj -67 518 outlet~;
#X obj -249 62 inlet;
#X text -246 45 level (0..1);
#X obj -107 37 inlet;
#X text 90 39 ratio;
#X text -121 19 res/decay (1..10000);
#X obj -320 98 inlet;
#X text -322 79 freq;
#X obj -63 433 vcf~ 1;
#X connect 0 0 24 1;
#X connect 1 0 16 0;
#X connect 2 0 4 0;
#X connect 3 0 12 0;
#X connect 4 0 3 0;
#X connect 4 1 3 1;
#X connect 5 0 8 1;
#X connect 6 0 5 0;
#X connect 7 0 9 0;
#X connect 7 1 6 0;
#X connect 8 0 0 1;
#X connect 9 0 8 0;
#X connect 10 0 11 0;
#X connect 11 0 1 1;
#X connect 12 0 11 1;
#X connect 13 0 10 0;
#X connect 13 1 10 1;
#X connect 13 2 12 0;
#X connect 14 0 24 0;
#X connect 15 0 7 0;
#X connect 17 0 13 0;
#X connect 19 0 2 0;
#X connect 19 0 24 2;
#X connect 22 0 0 0;
#X connect 24 0 1 0;
#X restore 184 428 pd reaonbp;
#N canvas 417 378 628 478 reaonbp 0;
#X obj 23 233 *;
#X obj -85 483 *~;
#X obj -142 87 log;
#X obj -147 142 *;
#X obj -150 116 t f f;
#X obj 85 157 pow -1;
#X obj 86 135 * -1;
#X obj 63 104 t f f;
#X obj 47 190 +;
#X obj 20 149 clip 0 16;
#X obj -211 198 *;
#X obj -165 257 *;
#X obj -139 229 float;
#X obj -214 173 t f f b;
#X obj -372 170 inlet~;
#X obj 92 54 inlet;
#X obj -67 518 outlet~;
#X obj -249 62 inlet;
#X text -246 45 level (0..1);
#X obj -107 37 inlet;
#X text 90 39 ratio;
#X text -121 19 res/decay (1..10000);
#X obj -320 98 inlet;
#X text -322 79 freq;
#X obj -63 433 vcf~ 1;
#X connect 0 0 24 1;
#X connect 1 0 16 0;
#X connect 2 0 4 0;
#X connect 3 0 12 0;
#X connect 4 0 3 0;
#X connect 4 1 3 1;
#X connect 5 0 8 1;
#X connect 6 0 5 0;
#X connect 7 0 9 0;
#X connect 7 1 6 0;
#X connect 8 0 0 1;
#X connect 9 0 8 0;
#X connect 10 0 11 0;
#X connect 11 0 1 1;
#X connect 12 0 11 1;
#X connect 13 0 10 0;
#X connect 13 1 10 1;
#X connect 13 2 12 0;
#X connect 14 0 24 0;
#X connect 15 0 7 0;
#X connect 17 0 13 0;
#X connect 19 0 2 0;
#X connect 19 0 24 2;
#X connect 22 0 0 0;
#X connect 24 0 1 0;
#X restore 218 464 pd reaonbp;
#N canvas 419 377 628 478 reaonbp 0;
#X obj 23 233 *;
#X obj -85 483 *~;
#X obj -142 87 log;
#X obj -147 142 *;
#X obj -150 116 t f f;
#X obj 85 157 pow -1;
#X obj 86 135 * -1;
#X obj 63 104 t f f;
#X obj 47 190 +;
#X obj 20 149 clip 0 16;
#X obj -211 198 *;
#X obj -165 257 *;
#X obj -139 229 float;
#X obj -214 173 t f f b;
#X obj -372 170 inlet~;
#X obj 92 54 inlet;
#X obj -67 518 outlet~;
#X obj -249 62 inlet;
#X text -246 45 level (0..1);
#X obj -107 37 inlet;
#X text 90 39 ratio;
#X text -121 19 res/decay (1..10000);
#X obj -320 98 inlet;
#X text -322 79 freq;
#X obj -63 433 vcf~ 1;
#X connect 0 0 24 1;
#X connect 1 0 16 0;
#X connect 2 0 4 0;
#X connect 3 0 12 0;
#X connect 4 0 3 0;
#X connect 4 1 3 1;
#X connect 5 0 8 1;
#X connect 6 0 5 0;
#X connect 7 0 9 0;
#X connect 7 1 6 0;
#X connect 8 0 0 1;
#X connect 9 0 8 0;
#X connect 10 0 11 0;
#X connect 11 0 1 1;
#X connect 12 0 11 1;
#X connect 13 0 10 0;
#X connect 13 1 10 1;
#X connect 13 2 12 0;
#X connect 14 0 24 0;
#X connect 15 0 7 0;
#X connect 17 0 13 0;
#X connect 19 0 2 0;
#X connect 19 0 24 2;
#X connect 22 0 0 0;
#X connect 24 0 1 0;
#X restore 251 499 pd reaonbp;
#N canvas 419 377 628 478 reaonbp 0;
#X obj 23 233 *;
#X obj -85 483 *~;
#X obj -142 87 log;
#X obj -147 142 *;
#X obj -150 116 t f f;
#X obj 85 157 pow -1;
#X obj 86 135 * -1;
#X obj 63 104 t f f;
#X obj 47 190 +;
#X obj 20 149 clip 0 16;
#X obj -211 198 *;
#X obj -165 257 *;
#X obj -139 229 float;
#X obj -214 173 t f f b;
#X obj -372 170 inlet~;
#X obj 92 54 inlet;
#X obj -67 518 outlet~;
#X obj -249 62 inlet;
#X text -246 45 level (0..1);
#X obj -107 37 inlet;
#X text 90 39 ratio;
#X text -121 19 res/decay (1..10000);
#X obj -320 98 inlet;
#X text -322 79 freq;
#X obj -63 433 vcf~ 1;
#X connect 0 0 24 1;
#X connect 1 0 16 0;
#X connect 2 0 4 0;
#X connect 3 0 12 0;
#X connect 4 0 3 0;
#X connect 4 1 3 1;
#X connect 5 0 8 1;
#X connect 6 0 5 0;
#X connect 7 0 9 0;
#X connect 7 1 6 0;
#X connect 8 0 0 1;
#X connect 9 0 8 0;
#X connect 10 0 11 0;
#X connect 11 0 1 1;
#X connect 12 0 11 1;
#X connect 13 0 10 0;
#X connect 13 1 10 1;
#X connect 13 2 12 0;
#X connect 14 0 24 0;
#X connect 15 0 7 0;
#X connect 17 0 13 0;
#X connect 19 0 2 0;
#X connect 19 0 24 2;
#X connect 22 0 0 0;
#X connect 24 0 1 0;
#X restore 280 531 pd reaonbp;
#X obj 13 54 noise~;
#X obj 112 90 line~;
#X msg 72 38 0 10;
#X obj 114 42 float;
#X obj 90 -5 t b b f;
#X obj 99 121 *~;
#X obj 77 -42 inlet;
#X text 72 -59 trig 0..1;
#X connect 0 0 1 0;
#X connect 2 0 6 0;
#X connect 3 0 7 0;
#X connect 6 0 0 1;
#X connect 6 0 8 1;
#X connect 6 0 9 1;
#X connect 6 0 10 1;
#X connect 6 0 11 1;
#X connect 7 0 0 2;
#X connect 7 1 0 3;
#X connect 7 2 0 4;
#X connect 7 3 8 2;
#X connect 7 4 8 3;
#X connect 7 5 8 4;
#X connect 7 6 9 2;
#X connect 7 7 9 3;
#X connect 7 8 9 4;
#X connect 7 9 10 2;
#X connect 7 10 10 3;
#X connect 7 11 10 4;
#X connect 7 12 11 2;
#X connect 7 13 11 3;
#X connect 7 14 11 4;
#X connect 8 0 1 0;
#X connect 9 0 1 0;
#X connect 10 0 1 0;
#X connect 11 0 1 0;
#X connect 12 0 17 0;
#X connect 13 0 17 1;
#X connect 14 0 13 0;
#X connect 15 0 13 0;
#X connect 16 0 14 0;
#X connect 16 1 15 0;
#X connect 16 2 15 1;
#X connect 17 0 0 0;
#X connect 17 0 8 0;
#X connect 17 0 9 0;
#X connect 17 0 10 0;
#X connect 17 0 11 0;
#X connect 18 0 16 0;
#X restore -48 561 pd monomode;
#X obj 153 136 nbx 3 14 0 127 0 1 empty empty empty 0 -8 0 10 -262144
-1 -1 51 256;
#N canvas 1 82 844 677 monomode 0;
#N canvas 415 379 628 478 reaonbp 0;
#X obj 23 233 *;
#X obj -85 483 *~;
#X obj -142 87 log;
#X obj -147 142 *;
#X obj -150 116 t f f;
#X obj 85 157 pow -1;
#X obj 86 135 * -1;
#X obj 63 104 t f f;
#X obj 47 190 +;
#X obj 20 149 clip 0 16;
#X obj -211 198 *;
#X obj -165 257 *;
#X obj -139 229 float;
#X obj -214 173 t f f b;
#X obj -372 170 inlet~;
#X obj 92 54 inlet;
#X obj -67 518 outlet~;
#X obj -249 62 inlet;
#X text -246 45 level (0..1);
#X obj -107 37 inlet;
#X text 90 39 ratio;
#X text -121 19 res/decay (1..10000);
#X obj -320 98 inlet;
#X text -322 79 freq;
#X obj -63 433 vcf~ 1;
#X connect 0 0 24 1;
#X connect 1 0 16 0;
#X connect 2 0 4 0;
#X connect 3 0 12 0;
#X connect 4 0 3 0;
#X connect 4 1 3 1;
#X connect 5 0 8 1;
#X connect 6 0 5 0;
#X connect 7 0 9 0;
#X connect 7 1 6 0;
#X connect 8 0 0 1;
#X connect 9 0 8 0;
#X connect 10 0 11 0;
#X connect 11 0 1 1;
#X connect 12 0 11 1;
#X connect 13 0 10 0;
#X connect 13 1 10 1;
#X connect 13 2 12 0;
#X connect 14 0 24 0;
#X connect 15 0 7 0;
#X connect 17 0 13 0;
#X connect 19 0 2 0;
#X connect 19 0 24 2;
#X connect 22 0 0 0;
#X connect 24 0 1 0;
#X restore 151 393 pd reaonbp;
#X obj 204 589 outlet~;
#X obj 205 100 inlet;
#X obj 262 102 inlet;
#X text 204 81 pitch;
#X text 262 81 params;
#X obj 184 137 mtof;
#X obj 258 323 unpack f f f f f f f f f f f f f f f;
#N canvas 419 377 628 478 reaonbp 0;
#X obj 23 233 *;
#X obj -85 483 *~;
#X obj -142 87 log;
#X obj -147 142 *;
#X obj -150 116 t f f;
#X obj 85 157 pow -1;
#X obj 86 135 * -1;
#X obj 63 104 t f f;
#X obj 47 190 +;
#X obj 20 149 clip 0 16;
#X obj -211 198 *;
#X obj -165 257 *;
#X obj -139 229 float;
#X obj -214 173 t f f b;
#X obj -372 170 inlet~;
#X obj 92 54 inlet;
#X obj -67 518 outlet~;
#X obj -249 62 inlet;
#X text -246 45 level (0..1);
#X obj -107 37 inlet;
#X text 90 39 ratio;
#X text -121 19 res/decay (1..10000);
#X obj -320 98 inlet;
#X text -322 79 freq;
#X obj -63 433 vcf~ 1;
#X connect 0 0 24 1;
#X connect 1 0 16 0;
#X connect 2 0 4 0;
#X connect 3 0 12 0;
#X connect 4 0 3 0;
#X connect 4 1 3 1;
#X connect 5 0 8 1;
#X connect 6 0 5 0;
#X connect 7 0 9 0;
#X connect 7 1 6 0;
#X connect 8 0 0 1;
#X connect 9 0 8 0;
#X connect 10 0 11 0;
#X connect 11 0 1 1;
#X connect 12 0 11 1;
#X connect 13 0 10 0;
#X connect 13 1 10 1;
#X connect 13 2 12 0;
#X connect 14 0 24 0;
#X connect 15 0 7 0;
#X connect 17 0 13 0;
#X connect 19 0 2 0;
#X connect 19 0 24 2;
#X connect 22 0 0 0;
#X connect 24 0 1 0;
#X restore 184 428 pd reaonbp;
#N canvas 417 378 628 478 reaonbp 0;
#X obj 23 233 *;
#X obj -85 483 *~;
#X obj -142 87 log;
#X obj -147 142 *;
#X obj -150 116 t f f;
#X obj 85 157 pow -1;
#X obj 86 135 * -1;
#X obj 63 104 t f f;
#X obj 47 190 +;
#X obj 20 149 clip 0 16;
#X obj -211 198 *;
#X obj -165 257 *;
#X obj -139 229 float;
#X obj -214 173 t f f b;
#X obj -372 170 inlet~;
#X obj 92 54 inlet;
#X obj -67 518 outlet~;
#X obj -249 62 inlet;
#X text -246 45 level (0..1);
#X obj -107 37 inlet;
#X text 90 39 ratio;
#X text -121 19 res/decay (1..10000);
#X obj -320 98 inlet;
#X text -322 79 freq;
#X obj -63 433 vcf~ 1;
#X connect 0 0 24 1;
#X connect 1 0 16 0;
#X connect 2 0 4 0;
#X connect 3 0 12 0;
#X connect 4 0 3 0;
#X connect 4 1 3 1;
#X connect 5 0 8 1;
#X connect 6 0 5 0;
#X connect 7 0 9 0;
#X connect 7 1 6 0;
#X connect 8 0 0 1;
#X connect 9 0 8 0;
#X connect 10 0 11 0;
#X connect 11 0 1 1;
#X connect 12 0 11 1;
#X connect 13 0 10 0;
#X connect 13 1 10 1;
#X connect 13 2 12 0;
#X connect 14 0 24 0;
#X connect 15 0 7 0;
#X connect 17 0 13 0;
#X connect 19 0 2 0;
#X connect 19 0 24 2;
#X connect 22 0 0 0;
#X connect 24 0 1 0;
#X restore 218 464 pd reaonbp;
#N canvas 419 377 628 478 reaonbp 0;
#X obj 23 233 *;
#X obj -85 483 *~;
#X obj -142 87 log;
#X obj -147 142 *;
#X obj -150 116 t f f;
#X obj 85 157 pow -1;
#X obj 86 135 * -1;
#X obj 63 104 t f f;
#X obj 47 190 +;
#X obj 20 149 clip 0 16;
#X obj -211 198 *;
#X obj -165 257 *;
#X obj -139 229 float;
#X obj -214 173 t f f b;
#X obj -372 170 inlet~;
#X obj 92 54 inlet;
#X obj -67 518 outlet~;
#X obj -249 62 inlet;
#X text -246 45 level (0..1);
#X obj -107 37 inlet;
#X text 90 39 ratio;
#X text -121 19 res/decay (1..10000);
#X obj -320 98 inlet;
#X text -322 79 freq;
#X obj -63 433 vcf~ 1;
#X connect 0 0 24 1;
#X connect 1 0 16 0;
#X connect 2 0 4 0;
#X connect 3 0 12 0;
#X connect 4 0 3 0;
#X connect 4 1 3 1;
#X connect 5 0 8 1;
#X connect 6 0 5 0;
#X connect 7 0 9 0;
#X connect 7 1 6 0;
#X connect 8 0 0 1;
#X connect 9 0 8 0;
#X connect 10 0 11 0;
#X connect 11 0 1 1;
#X connect 12 0 11 1;
#X connect 13 0 10 0;
#X connect 13 1 10 1;
#X connect 13 2 12 0;
#X connect 14 0 24 0;
#X connect 15 0 7 0;
#X connect 17 0 13 0;
#X connect 19 0 2 0;
#X connect 19 0 24 2;
#X connect 22 0 0 0;
#X connect 24 0 1 0;
#X restore 251 499 pd reaonbp;
#N canvas 419 377 628 478 reaonbp 0;
#X obj 23 233 *;
#X obj -85 483 *~;
#X obj -142 87 log;
#X obj -147 142 *;
#X obj -150 116 t f f;
#X obj 85 157 pow -1;
#X obj 86 135 * -1;
#X obj 63 104 t f f;
#X obj 47 190 +;
#X obj 20 149 clip 0 16;
#X obj -211 198 *;
#X obj -165 257 *;
#X obj -139 229 float;
#X obj -214 173 t f f b;
#X obj -372 170 inlet~;
#X obj 92 54 inlet;
#X obj -67 518 outlet~;
#X obj -249 62 inlet;
#X text -246 45 level (0..1);
#X obj -107 37 inlet;
#X text 90 39 ratio;
#X text -121 19 res/decay (1..10000);
#X obj -320 98 inlet;
#X text -322 79 freq;
#X obj -63 433 vcf~ 1;
#X connect 0 0 24 1;
#X connect 1 0 16 0;
#X connect 2 0 4 0;
#X connect 3 0 12 0;
#X connect 4 0 3 0;
#X connect 4 1 3 1;
#X connect 5 0 8 1;
#X connect 6 0 5 0;
#X connect 7 0 9 0;
#X connect 7 1 6 0;
#X connect 8 0 0 1;
#X connect 9 0 8 0;
#X connect 10 0 11 0;
#X connect 11 0 1 1;
#X connect 12 0 11 1;
#X connect 13 0 10 0;
#X connect 13 1 10 1;
#X connect 13 2 12 0;
#X connect 14 0 24 0;
#X connect 15 0 7 0;
#X connect 17 0 13 0;
#X connect 19 0 2 0;
#X connect 19 0 24 2;
#X connect 22 0 0 0;
#X connect 24 0 1 0;
#X restore 280 531 pd reaonbp;
#X obj 13 54 noise~;
#X obj 112 90 line~;
#X msg 72 38 0 10;
#X obj 114 42 float;
#X obj 90 -5 t b b f;
#X obj 99 121 *~;
#X obj 77 -42 inlet;
#X text 72 -59 trig 0..1;
#X connect 0 0 1 0;
#X connect 2 0 6 0;
#X connect 3 0 7 0;
#X connect 6 0 0 1;
#X connect 6 0 8 1;
#X connect 6 0 9 1;
#X connect 6 0 10 1;
#X connect 6 0 11 1;
#X connect 7 0 0 2;
#X connect 7 1 0 3;
#X connect 7 2 0 4;
#X connect 7 3 8 2;
#X connect 7 4 8 3;
#X connect 7 5 8 4;
#X connect 7 6 9 2;
#X connect 7 7 9 3;
#X connect 7 8 9 4;
#X connect 7 9 10 2;
#X connect 7 10 10 3;
#X connect 7 11 10 4;
#X connect 7 12 11 2;
#X connect 7 13 11 3;
#X connect 7 14 11 4;
#X connect 8 0 1 0;
#X connect 9 0 1 0;
#X connect 10 0 1 0;
#X connect 11 0 1 0;
#X connect 12 0 17 0;
#X connect 13 0 17 1;
#X connect 14 0 13 0;
#X connect 15 0 13 0;
#X connect 16 0 14 0;
#X connect 16 1 15 0;
#X connect 16 2 15 1;
#X connect 17 0 0 0;
#X connect 17 0 8 0;
#X connect 17 0 9 0;
#X connect 17 0 10 0;
#X connect 17 0 11 0;
#X connect 18 0 16 0;
#X restore -30 590 pd monomode;
#X obj 153 156 nbx 3 14 0 127 0 1 empty empty empty 0 -8 0 10 -262144
-1 -1 54 256;
#N canvas 1 82 844 677 monomode 0;
#N canvas 415 379 628 478 reaonbp 0;
#X obj 23 233 *;
#X obj -85 483 *~;
#X obj -142 87 log;
#X obj -147 142 *;
#X obj -150 116 t f f;
#X obj 85 157 pow -1;
#X obj 86 135 * -1;
#X obj 63 104 t f f;
#X obj 47 190 +;
#X obj 20 149 clip 0 16;
#X obj -211 198 *;
#X obj -165 257 *;
#X obj -139 229 float;
#X obj -214 173 t f f b;
#X obj -372 170 inlet~;
#X obj 92 54 inlet;
#X obj -67 518 outlet~;
#X obj -249 62 inlet;
#X text -246 45 level (0..1);
#X obj -107 37 inlet;
#X text 90 39 ratio;
#X text -121 19 res/decay (1..10000);
#X obj -320 98 inlet;
#X text -322 79 freq;
#X obj -63 433 vcf~ 1;
#X connect 0 0 24 1;
#X connect 1 0 16 0;
#X connect 2 0 4 0;
#X connect 3 0 12 0;
#X connect 4 0 3 0;
#X connect 4 1 3 1;
#X connect 5 0 8 1;
#X connect 6 0 5 0;
#X connect 7 0 9 0;
#X connect 7 1 6 0;
#X connect 8 0 0 1;
#X connect 9 0 8 0;
#X connect 10 0 11 0;
#X connect 11 0 1 1;
#X connect 12 0 11 1;
#X connect 13 0 10 0;
#X connect 13 1 10 1;
#X connect 13 2 12 0;
#X connect 14 0 24 0;
#X connect 15 0 7 0;
#X connect 17 0 13 0;
#X connect 19 0 2 0;
#X connect 19 0 24 2;
#X connect 22 0 0 0;
#X connect 24 0 1 0;
#X restore 151 393 pd reaonbp;
#X obj 204 589 outlet~;
#X obj 205 100 inlet;
#X obj 262 102 inlet;
#X text 204 81 pitch;
#X text 262 81 params;
#X obj 184 137 mtof;
#X obj 258 323 unpack f f f f f f f f f f f f f f f;
#N canvas 419 377 628 478 reaonbp 0;
#X obj 23 233 *;
#X obj -85 483 *~;
#X obj -142 87 log;
#X obj -147 142 *;
#X obj -150 116 t f f;
#X obj 85 157 pow -1;
#X obj 86 135 * -1;
#X obj 63 104 t f f;
#X obj 47 190 +;
#X obj 20 149 clip 0 16;
#X obj -211 198 *;
#X obj -165 257 *;
#X obj -139 229 float;
#X obj -214 173 t f f b;
#X obj -372 170 inlet~;
#X obj 92 54 inlet;
#X obj -67 518 outlet~;
#X obj -249 62 inlet;
#X text -246 45 level (0..1);
#X obj -107 37 inlet;
#X text 90 39 ratio;
#X text -121 19 res/decay (1..10000);
#X obj -320 98 inlet;
#X text -322 79 freq;
#X obj -63 433 vcf~ 1;
#X connect 0 0 24 1;
#X connect 1 0 16 0;
#X connect 2 0 4 0;
#X connect 3 0 12 0;
#X connect 4 0 3 0;
#X connect 4 1 3 1;
#X connect 5 0 8 1;
#X connect 6 0 5 0;
#X connect 7 0 9 0;
#X connect 7 1 6 0;
#X connect 8 0 0 1;
#X connect 9 0 8 0;
#X connect 10 0 11 0;
#X connect 11 0 1 1;
#X connect 12 0 11 1;
#X connect 13 0 10 0;
#X connect 13 1 10 1;
#X connect 13 2 12 0;
#X connect 14 0 24 0;
#X connect 15 0 7 0;
#X connect 17 0 13 0;
#X connect 19 0 2 0;
#X connect 19 0 24 2;
#X connect 22 0 0 0;
#X connect 24 0 1 0;
#X restore 184 428 pd reaonbp;
#N canvas 417 378 628 478 reaonbp 0;
#X obj 23 233 *;
#X obj -85 483 *~;
#X obj -142 87 log;
#X obj -147 142 *;
#X obj -150 116 t f f;
#X obj 85 157 pow -1;
#X obj 86 135 * -1;
#X obj 63 104 t f f;
#X obj 47 190 +;
#X obj 20 149 clip 0 16;
#X obj -211 198 *;
#X obj -165 257 *;
#X obj -139 229 float;
#X obj -214 173 t f f b;
#X obj -372 170 inlet~;
#X obj 92 54 inlet;
#X obj -67 518 outlet~;
#X obj -249 62 inlet;
#X text -246 45 level (0..1);
#X obj -107 37 inlet;
#X text 90 39 ratio;
#X text -121 19 res/decay (1..10000);
#X obj -320 98 inlet;
#X text -322 79 freq;
#X obj -63 433 vcf~ 1;
#X connect 0 0 24 1;
#X connect 1 0 16 0;
#X connect 2 0 4 0;
#X connect 3 0 12 0;
#X connect 4 0 3 0;
#X connect 4 1 3 1;
#X connect 5 0 8 1;
#X connect 6 0 5 0;
#X connect 7 0 9 0;
#X connect 7 1 6 0;
#X connect 8 0 0 1;
#X connect 9 0 8 0;
#X connect 10 0 11 0;
#X connect 11 0 1 1;
#X connect 12 0 11 1;
#X connect 13 0 10 0;
#X connect 13 1 10 1;
#X connect 13 2 12 0;
#X connect 14 0 24 0;
#X connect 15 0 7 0;
#X connect 17 0 13 0;
#X connect 19 0 2 0;
#X connect 19 0 24 2;
#X connect 22 0 0 0;
#X connect 24 0 1 0;
#X restore 218 464 pd reaonbp;
#N canvas 419 377 628 478 reaonbp 0;
#X obj 23 233 *;
#X obj -85 483 *~;
#X obj -142 87 log;
#X obj -147 142 *;
#X obj -150 116 t f f;
#X obj 85 157 pow -1;
#X obj 86 135 * -1;
#X obj 63 104 t f f;
#X obj 47 190 +;
#X obj 20 149 clip 0 16;
#X obj -211 198 *;
#X obj -165 257 *;
#X obj -139 229 float;
#X obj -214 173 t f f b;
#X obj -372 170 inlet~;
#X obj 92 54 inlet;
#X obj -67 518 outlet~;
#X obj -249 62 inlet;
#X text -246 45 level (0..1);
#X obj -107 37 inlet;
#X text 90 39 ratio;
#X text -121 19 res/decay (1..10000);
#X obj -320 98 inlet;
#X text -322 79 freq;
#X obj -63 433 vcf~ 1;
#X connect 0 0 24 1;
#X connect 1 0 16 0;
#X connect 2 0 4 0;
#X connect 3 0 12 0;
#X connect 4 0 3 0;
#X connect 4 1 3 1;
#X connect 5 0 8 1;
#X connect 6 0 5 0;
#X connect 7 0 9 0;
#X connect 7 1 6 0;
#X connect 8 0 0 1;
#X connect 9 0 8 0;
#X connect 10 0 11 0;
#X connect 11 0 1 1;
#X connect 12 0 11 1;
#X connect 13 0 10 0;
#X connect 13 1 10 1;
#X connect 13 2 12 0;
#X connect 14 0 24 0;
#X connect 15 0 7 0;
#X connect 17 0 13 0;
#X connect 19 0 2 0;
#X connect 19 0 24 2;
#X connect 22 0 0 0;
#X connect 24 0 1 0;
#X restore 251 499 pd reaonbp;
#N canvas 419 377 628 478 reaonbp 0;
#X obj 23 233 *;
#X obj -85 483 *~;
#X obj -142 87 log;
#X obj -147 142 *;
#X obj -150 116 t f f;
#X obj 85 157 pow -1;
#X obj 86 135 * -1;
#X obj 63 104 t f f;
#X obj 47 190 +;
#X obj 20 149 clip 0 16;
#X obj -211 198 *;
#X obj -165 257 *;
#X obj -139 229 float;
#X obj -214 173 t f f b;
#X obj -372 170 inlet~;
#X obj 92 54 inlet;
#X obj -67 518 outlet~;
#X obj -249 62 inlet;
#X text -246 45 level (0..1);
#X obj -107 37 inlet;
#X text 90 39 ratio;
#X text -121 19 res/decay (1..10000);
#X obj -320 98 inlet;
#X text -322 79 freq;
#X obj -63 433 vcf~ 1;
#X connect 0 0 24 1;
#X connect 1 0 16 0;
#X connect 2 0 4 0;
#X connect 3 0 12 0;
#X connect 4 0 3 0;
#X connect 4 1 3 1;
#X connect 5 0 8 1;
#X connect 6 0 5 0;
#X connect 7 0 9 0;
#X connect 7 1 6 0;
#X connect 8 0 0 1;
#X connect 9 0 8 0;
#X connect 10 0 11 0;
#X connect 11 0 1 1;
#X connect 12 0 11 1;
#X connect 13 0 10 0;
#X connect 13 1 10 1;
#X connect 13 2 12 0;
#X connect 14 0 24 0;
#X connect 15 0 7 0;
#X connect 17 0 13 0;
#X connect 19 0 2 0;
#X connect 19 0 24 2;
#X connect 22 0 0 0;
#X connect 24 0 1 0;
#X restore 280 531 pd reaonbp;
#X obj 13 54 noise~;
#X obj 112 90 line~;
#X msg 72 38 0 10;
#X obj 114 42 float;
#X obj 90 -5 t b b f;
#X obj 99 121 *~;
#X obj 77 -42 inlet;
#X text 72 -59 trig 0..1;
#X connect 0 0 1 0;
#X connect 2 0 6 0;
#X connect 3 0 7 0;
#X connect 6 0 0 1;
#X connect 6 0 8 1;
#X connect 6 0 9 1;
#X connect 6 0 10 1;
#X connect 6 0 11 1;
#X connect 7 0 0 2;
#X connect 7 1 0 3;
#X connect 7 2 0 4;
#X connect 7 3 8 2;
#X connect 7 4 8 3;
#X connect 7 5 8 4;
#X connect 7 6 9 2;
#X connect 7 7 9 3;
#X connect 7 8 9 4;
#X connect 7 9 10 2;
#X connect 7 10 10 3;
#X connect 7 11 10 4;
#X connect 7 12 11 2;
#X connect 7 13 11 3;
#X connect 7 14 11 4;
#X connect 8 0 1 0;
#X connect 9 0 1 0;
#X connect 10 0 1 0;
#X connect 11 0 1 0;
#X connect 12 0 17 0;
#X connect 13 0 17 1;
#X connect 14 0 13 0;
#X connect 15 0 13 0;
#X connect 16 0 14 0;
#X connect 16 1 15 0;
#X connect 16 2 15 1;
#X connect 17 0 0 0;
#X connect 17 0 8 0;
#X connect 17 0 9 0;
#X connect 17 0 10 0;
#X connect 17 0 11 0;
#X connect 18 0 16 0;
#X restore 36 619 pd monomode;
#X obj 198 116 nbx 3 14 0 127 0 1 empty empty empty 0 -8 0 10 -262144
-1 -1 60 256;
#N canvas 1 82 844 677 monomode 0;
#N canvas 415 379 628 478 reaonbp 0;
#X obj 23 233 *;
#X obj -85 483 *~;
#X obj -142 87 log;
#X obj -147 142 *;
#X obj -150 116 t f f;
#X obj 85 157 pow -1;
#X obj 86 135 * -1;
#X obj 63 104 t f f;
#X obj 47 190 +;
#X obj 20 149 clip 0 16;
#X obj -211 198 *;
#X obj -165 257 *;
#X obj -139 229 float;
#X obj -214 173 t f f b;
#X obj -372 170 inlet~;
#X obj 92 54 inlet;
#X obj -67 518 outlet~;
#X obj -249 62 inlet;
#X text -246 45 level (0..1);
#X obj -107 37 inlet;
#X text 90 39 ratio;
#X text -121 19 res/decay (1..10000);
#X obj -320 98 inlet;
#X text -322 79 freq;
#X obj -63 433 vcf~ 1;
#X connect 0 0 24 1;
#X connect 1 0 16 0;
#X connect 2 0 4 0;
#X connect 3 0 12 0;
#X connect 4 0 3 0;
#X connect 4 1 3 1;
#X connect 5 0 8 1;
#X connect 6 0 5 0;
#X connect 7 0 9 0;
#X connect 7 1 6 0;
#X connect 8 0 0 1;
#X connect 9 0 8 0;
#X connect 10 0 11 0;
#X connect 11 0 1 1;
#X connect 12 0 11 1;
#X connect 13 0 10 0;
#X connect 13 1 10 1;
#X connect 13 2 12 0;
#X connect 14 0 24 0;
#X connect 15 0 7 0;
#X connect 17 0 13 0;
#X connect 19 0 2 0;
#X connect 19 0 24 2;
#X connect 22 0 0 0;
#X connect 24 0 1 0;
#X restore 151 393 pd reaonbp;
#X obj 204 589 outlet~;
#X obj 205 100 inlet;
#X obj 262 102 inlet;
#X text 204 81 pitch;
#X text 262 81 params;
#X obj 184 137 mtof;
#X obj 258 323 unpack f f f f f f f f f f f f f f f;
#N canvas 419 377 628 478 reaonbp 0;
#X obj 23 233 *;
#X obj -85 483 *~;
#X obj -142 87 log;
#X obj -147 142 *;
#X obj -150 116 t f f;
#X obj 85 157 pow -1;
#X obj 86 135 * -1;
#X obj 63 104 t f f;
#X obj 47 190 +;
#X obj 20 149 clip 0 16;
#X obj -211 198 *;
#X obj -165 257 *;
#X obj -139 229 float;
#X obj -214 173 t f f b;
#X obj -372 170 inlet~;
#X obj 92 54 inlet;
#X obj -67 518 outlet~;
#X obj -249 62 inlet;
#X text -246 45 level (0..1);
#X obj -107 37 inlet;
#X text 90 39 ratio;
#X text -121 19 res/decay (1..10000);
#X obj -320 98 inlet;
#X text -322 79 freq;
#X obj -63 433 vcf~ 1;
#X connect 0 0 24 1;
#X connect 1 0 16 0;
#X connect 2 0 4 0;
#X connect 3 0 12 0;
#X connect 4 0 3 0;
#X connect 4 1 3 1;
#X connect 5 0 8 1;
#X connect 6 0 5 0;
#X connect 7 0 9 0;
#X connect 7 1 6 0;
#X connect 8 0 0 1;
#X connect 9 0 8 0;
#X connect 10 0 11 0;
#X connect 11 0 1 1;
#X connect 12 0 11 1;
#X connect 13 0 10 0;
#X connect 13 1 10 1;
#X connect 13 2 12 0;
#X connect 14 0 24 0;
#X connect 15 0 7 0;
#X connect 17 0 13 0;
#X connect 19 0 2 0;
#X connect 19 0 24 2;
#X connect 22 0 0 0;
#X connect 24 0 1 0;
#X restore 184 428 pd reaonbp;
#N canvas 417 378 628 478 reaonbp 0;
#X obj 23 233 *;
#X obj -85 483 *~;
#X obj -142 87 log;
#X obj -147 142 *;
#X obj -150 116 t f f;
#X obj 85 157 pow -1;
#X obj 86 135 * -1;
#X obj 63 104 t f f;
#X obj 47 190 +;
#X obj 20 149 clip 0 16;
#X obj -211 198 *;
#X obj -165 257 *;
#X obj -139 229 float;
#X obj -214 173 t f f b;
#X obj -372 170 inlet~;
#X obj 92 54 inlet;
#X obj -67 518 outlet~;
#X obj -249 62 inlet;
#X text -246 45 level (0..1);
#X obj -107 37 inlet;
#X text 90 39 ratio;
#X text -121 19 res/decay (1..10000);
#X obj -320 98 inlet;
#X text -322 79 freq;
#X obj -63 433 vcf~ 1;
#X connect 0 0 24 1;
#X connect 1 0 16 0;
#X connect 2 0 4 0;
#X connect 3 0 12 0;
#X connect 4 0 3 0;
#X connect 4 1 3 1;
#X connect 5 0 8 1;
#X connect 6 0 5 0;
#X connect 7 0 9 0;
#X connect 7 1 6 0;
#X connect 8 0 0 1;
#X connect 9 0 8 0;
#X connect 10 0 11 0;
#X connect 11 0 1 1;
#X connect 12 0 11 1;
#X connect 13 0 10 0;
#X connect 13 1 10 1;
#X connect 13 2 12 0;
#X connect 14 0 24 0;
#X connect 15 0 7 0;
#X connect 17 0 13 0;
#X connect 19 0 2 0;
#X connect 19 0 24 2;
#X connect 22 0 0 0;
#X connect 24 0 1 0;
#X restore 218 464 pd reaonbp;
#N canvas 419 377 628 478 reaonbp 0;
#X obj 23 233 *;
#X obj -85 483 *~;
#X obj -142 87 log;
#X obj -147 142 *;
#X obj -150 116 t f f;
#X obj 85 157 pow -1;
#X obj 86 135 * -1;
#X obj 63 104 t f f;
#X obj 47 190 +;
#X obj 20 149 clip 0 16;
#X obj -211 198 *;
#X obj -165 257 *;
#X obj -139 229 float;
#X obj -214 173 t f f b;
#X obj -372 170 inlet~;
#X obj 92 54 inlet;
#X obj -67 518 outlet~;
#X obj -249 62 inlet;
#X text -246 45 level (0..1);
#X obj -107 37 inlet;
#X text 90 39 ratio;
#X text -121 19 res/decay (1..10000);
#X obj -320 98 inlet;
#X text -322 79 freq;
#X obj -63 433 vcf~ 1;
#X connect 0 0 24 1;
#X connect 1 0 16 0;
#X connect 2 0 4 0;
#X connect 3 0 12 0;
#X connect 4 0 3 0;
#X connect 4 1 3 1;
#X connect 5 0 8 1;
#X connect 6 0 5 0;
#X connect 7 0 9 0;
#X connect 7 1 6 0;
#X connect 8 0 0 1;
#X connect 9 0 8 0;
#X connect 10 0 11 0;
#X connect 11 0 1 1;
#X connect 12 0 11 1;
#X connect 13 0 10 0;
#X connect 13 1 10 1;
#X connect 13 2 12 0;
#X connect 14 0 24 0;
#X connect 15 0 7 0;
#X connect 17 0 13 0;
#X connect 19 0 2 0;
#X connect 19 0 24 2;
#X connect 22 0 0 0;
#X connect 24 0 1 0;
#X restore 251 499 pd reaonbp;
#N canvas 419 377 628 478 reaonbp 0;
#X obj 23 233 *;
#X obj -85 483 *~;
#X obj -142 87 log;
#X obj -147 142 *;
#X obj -150 116 t f f;
#X obj 85 157 pow -1;
#X obj 86 135 * -1;
#X obj 63 104 t f f;
#X obj 47 190 +;
#X obj 20 149 clip 0 16;
#X obj -211 198 *;
#X obj -165 257 *;
#X obj -139 229 float;
#X obj -214 173 t f f b;
#X obj -372 170 inlet~;
#X obj 92 54 inlet;
#X obj -67 518 outlet~;
#X obj -249 62 inlet;
#X text -246 45 level (0..1);
#X obj -107 37 inlet;
#X text 90 39 ratio;
#X text -121 19 res/decay (1..10000);
#X obj -320 98 inlet;
#X text -322 79 freq;
#X obj -63 433 vcf~ 1;
#X connect 0 0 24 1;
#X connect 1 0 16 0;
#X connect 2 0 4 0;
#X connect 3 0 12 0;
#X connect 4 0 3 0;
#X connect 4 1 3 1;
#X connect 5 0 8 1;
#X connect 6 0 5 0;
#X connect 7 0 9 0;
#X connect 7 1 6 0;
#X connect 8 0 0 1;
#X connect 9 0 8 0;
#X connect 10 0 11 0;
#X connect 11 0 1 1;
#X connect 12 0 11 1;
#X connect 13 0 10 0;
#X connect 13 1 10 1;
#X connect 13 2 12 0;
#X connect 14 0 24 0;
#X connect 15 0 7 0;
#X connect 17 0 13 0;
#X connect 19 0 2 0;
#X connect 19 0 24 2;
#X connect 22 0 0 0;
#X connect 24 0 1 0;
#X restore 280 531 pd reaonbp;
#X obj 13 54 noise~;
#X obj 112 90 line~;
#X msg 72 38 0 10;
#X obj 114 42 float;
#X obj 90 -5 t b b f;
#X obj 99 121 *~;
#X obj 77 -42 inlet;
#X text 72 -59 trig 0..1;
#X connect 0 0 1 0;
#X connect 2 0 6 0;
#X connect 3 0 7 0;
#X connect 6 0 0 1;
#X connect 6 0 8 1;
#X connect 6 0 9 1;
#X connect 6 0 10 1;
#X connect 6 0 11 1;
#X connect 7 0 0 2;
#X connect 7 1 0 3;
#X connect 7 2 0 4;
#X connect 7 3 8 2;
#X connect 7 4 8 3;
#X connect 7 5 8 4;
#X connect 7 6 9 2;
#X connect 7 7 9 3;
#X connect 7 8 9 4;
#X connect 7 9 10 2;
#X connect 7 10 10 3;
#X connect 7 11 10 4;
#X connect 7 12 11 2;
#X connect 7 13 11 3;
#X connect 7 14 11 4;
#X connect 8 0 1 0;
#X connect 9 0 1 0;
#X connect 10 0 1 0;
#X connect 11 0 1 0;
#X connect 12 0 17 0;
#X connect 13 0 17 1;
#X connect 14 0 13 0;
#X connect 15 0 13 0;
#X connect 16 0 14 0;
#X connect 16 1 15 0;
#X connect 16 2 15 1;
#X connect 17 0 0 0;
#X connect 17 0 8 0;
#X connect 17 0 9 0;
#X connect 17 0 10 0;
#X connect 17 0 11 0;
#X connect 18 0 16 0;
#X restore 64 651 pd monomode;
#X obj 198 136 nbx 3 14 0 127 0 1 empty empty empty 0 -8 0 10 -262144
-1 -1 63 256;
#N canvas 108 68 844 677 monomode 0;
#N canvas 415 379 628 478 reaonbp 0;
#X obj 23 233 *;
#X obj -85 483 *~;
#X obj -142 87 log;
#X obj -147 142 *;
#X obj -150 116 t f f;
#X obj 85 157 pow -1;
#X obj 86 135 * -1;
#X obj 63 104 t f f;
#X obj 47 190 +;
#X obj 20 149 clip 0 16;
#X obj -211 198 *;
#X obj -165 257 *;
#X obj -139 229 float;
#X obj -214 173 t f f b;
#X obj -372 170 inlet~;
#X obj 92 54 inlet;
#X obj -67 518 outlet~;
#X obj -249 62 inlet;
#X text -246 45 level (0..1);
#X obj -107 37 inlet;
#X text 90 39 ratio;
#X text -121 19 res/decay (1..10000);
#X obj -320 98 inlet;
#X text -322 79 freq;
#X obj -63 433 vcf~ 1;
#X connect 0 0 24 1;
#X connect 1 0 16 0;
#X connect 2 0 4 0;
#X connect 3 0 12 0;
#X connect 4 0 3 0;
#X connect 4 1 3 1;
#X connect 5 0 8 1;
#X connect 6 0 5 0;
#X connect 7 0 9 0;
#X connect 7 1 6 0;
#X connect 8 0 0 1;
#X connect 9 0 8 0;
#X connect 10 0 11 0;
#X connect 11 0 1 1;
#X connect 12 0 11 1;
#X connect 13 0 10 0;
#X connect 13 1 10 1;
#X connect 13 2 12 0;
#X connect 14 0 24 0;
#X connect 15 0 7 0;
#X connect 17 0 13 0;
#X connect 19 0 2 0;
#X connect 19 0 24 2;
#X connect 22 0 0 0;
#X connect 24 0 1 0;
#X restore 151 393 pd reaonbp;
#X obj 204 589 outlet~;
#X obj 205 100 inlet;
#X obj 262 102 inlet;
#X text 204 81 pitch;
#X text 262 81 params;
#X obj 184 137 mtof;
#X obj 258 323 unpack f f f f f f f f f f f f f f f;
#N canvas 419 377 628 478 reaonbp 0;
#X obj 23 233 *;
#X obj -85 483 *~;
#X obj -142 87 log;
#X obj -147 142 *;
#X obj -150 116 t f f;
#X obj 85 157 pow -1;
#X obj 86 135 * -1;
#X obj 63 104 t f f;
#X obj 47 190 +;
#X obj 20 149 clip 0 16;
#X obj -211 198 *;
#X obj -165 257 *;
#X obj -139 229 float;
#X obj -214 173 t f f b;
#X obj -372 170 inlet~;
#X obj 92 54 inlet;
#X obj -67 518 outlet~;
#X obj -249 62 inlet;
#X text -246 45 level (0..1);
#X obj -107 37 inlet;
#X text 90 39 ratio;
#X text -121 19 res/decay (1..10000);
#X obj -320 98 inlet;
#X text -322 79 freq;
#X obj -63 433 vcf~ 1;
#X connect 0 0 24 1;
#X connect 1 0 16 0;
#X connect 2 0 4 0;
#X connect 3 0 12 0;
#X connect 4 0 3 0;
#X connect 4 1 3 1;
#X connect 5 0 8 1;
#X connect 6 0 5 0;
#X connect 7 0 9 0;
#X connect 7 1 6 0;
#X connect 8 0 0 1;
#X connect 9 0 8 0;
#X connect 10 0 11 0;
#X connect 11 0 1 1;
#X connect 12 0 11 1;
#X connect 13 0 10 0;
#X connect 13 1 10 1;
#X connect 13 2 12 0;
#X connect 14 0 24 0;
#X connect 15 0 7 0;
#X connect 17 0 13 0;
#X connect 19 0 2 0;
#X connect 19 0 24 2;
#X connect 22 0 0 0;
#X connect 24 0 1 0;
#X restore 184 428 pd reaonbp;
#N canvas 417 378 628 478 reaonbp 0;
#X obj 23 233 *;
#X obj -85 483 *~;
#X obj -142 87 log;
#X obj -147 142 *;
#X obj -150 116 t f f;
#X obj 85 157 pow -1;
#X obj 86 135 * -1;
#X obj 63 104 t f f;
#X obj 47 190 +;
#X obj 20 149 clip 0 16;
#X obj -211 198 *;
#X obj -165 257 *;
#X obj -139 229 float;
#X obj -214 173 t f f b;
#X obj -372 170 inlet~;
#X obj 92 54 inlet;
#X obj -67 518 outlet~;
#X obj -249 62 inlet;
#X text -246 45 level (0..1);
#X obj -107 37 inlet;
#X text 90 39 ratio;
#X text -121 19 res/decay (1..10000);
#X obj -320 98 inlet;
#X text -322 79 freq;
#X obj -63 433 vcf~ 1;
#X connect 0 0 24 1;
#X connect 1 0 16 0;
#X connect 2 0 4 0;
#X connect 3 0 12 0;
#X connect 4 0 3 0;
#X connect 4 1 3 1;
#X connect 5 0 8 1;
#X connect 6 0 5 0;
#X connect 7 0 9 0;
#X connect 7 1 6 0;
#X connect 8 0 0 1;
#X connect 9 0 8 0;
#X connect 10 0 11 0;
#X connect 11 0 1 1;
#X connect 12 0 11 1;
#X connect 13 0 10 0;
#X connect 13 1 10 1;
#X connect 13 2 12 0;
#X connect 14 0 24 0;
#X connect 15 0 7 0;
#X connect 17 0 13 0;
#X connect 19 0 2 0;
#X connect 19 0 24 2;
#X connect 22 0 0 0;
#X connect 24 0 1 0;
#X restore 218 464 pd reaonbp;
#N canvas 419 377 628 478 reaonbp 0;
#X obj 23 233 *;
#X obj -85 483 *~;
#X obj -142 87 log;
#X obj -147 142 *;
#X obj -150 116 t f f;
#X obj 85 157 pow -1;
#X obj 86 135 * -1;
#X obj 63 104 t f f;
#X obj 47 190 +;
#X obj 20 149 clip 0 16;
#X obj -211 198 *;
#X obj -165 257 *;
#X obj -139 229 float;
#X obj -214 173 t f f b;
#X obj -372 170 inlet~;
#X obj 92 54 inlet;
#X obj -67 518 outlet~;
#X obj -249 62 inlet;
#X text -246 45 level (0..1);
#X obj -107 37 inlet;
#X text 90 39 ratio;
#X text -121 19 res/decay (1..10000);
#X obj -320 98 inlet;
#X text -322 79 freq;
#X obj -63 433 vcf~ 1;
#X connect 0 0 24 1;
#X connect 1 0 16 0;
#X connect 2 0 4 0;
#X connect 3 0 12 0;
#X connect 4 0 3 0;
#X connect 4 1 3 1;
#X connect 5 0 8 1;
#X connect 6 0 5 0;
#X connect 7 0 9 0;
#X connect 7 1 6 0;
#X connect 8 0 0 1;
#X connect 9 0 8 0;
#X connect 10 0 11 0;
#X connect 11 0 1 1;
#X connect 12 0 11 1;
#X connect 13 0 10 0;
#X connect 13 1 10 1;
#X connect 13 2 12 0;
#X connect 14 0 24 0;
#X connect 15 0 7 0;
#X connect 17 0 13 0;
#X connect 19 0 2 0;
#X connect 19 0 24 2;
#X connect 22 0 0 0;
#X connect 24 0 1 0;
#X restore 251 499 pd reaonbp;
#N canvas 1086 177 628 478 reaonbp 0;
#X obj 23 233 *;
#X obj -85 483 *~;
#X obj -142 87 log;
#X obj -147 142 *;
#X obj -150 116 t f f;
#X obj 85 157 pow -1;
#X obj 86 135 * -1;
#X obj 63 104 t f f;
#X obj 47 190 +;
#X obj 20 149 clip 0 16;
#X obj -211 198 *;
#X obj -165 257 *;
#X obj -139 229 float;
#X obj -214 173 t f f b;
#X obj -372 170 inlet~;
#X obj 92 54 inlet;
#X obj -67 518 outlet~;
#X obj -249 62 inlet;
#X text -246 45 level (0..1);
#X obj -107 37 inlet;
#X text 90 39 ratio;
#X text -121 19 res/decay (1..10000);
#X obj -320 98 inlet;
#X text -322 79 freq;
#X obj -63 433 vcf~ 1;
#X connect 0 0 24 1;
#X connect 1 0 16 0;
#X connect 2 0 4 0;
#X connect 3 0 12 0;
#X connect 4 0 3 0;
#X connect 4 1 3 1;
#X connect 5 0 8 1;
#X connect 6 0 5 0;
#X connect 7 0 9 0;
#X connect 7 1 6 0;
#X connect 8 0 0 1;
#X connect 9 0 8 0;
#X connect 10 0 11 0;
#X connect 11 0 1 1;
#X connect 12 0 11 1;
#X connect 13 0 10 0;
#X connect 13 1 10 1;
#X connect 13 2 12 0;
#X connect 14 0 24 0;
#X connect 15 0 7 0;
#X connect 17 0 13 0;
#X connect 19 0 2 0;
#X connect 19 0 24 2;
#X connect 22 0 0 0;
#X connect 24 0 1 0;
#X restore 280 531 pd reaonbp;
#X obj 13 54 noise~;
#X obj 112 90 line~;
#X msg 72 38 0 10;
#X obj 114 42 float;
#X obj 90 -5 t b b f;
#X obj 99 121 *~;
#X obj 77 -42 inlet;
#X text 72 -59 trig 0..1;
#X connect 0 0 1 0;
#X connect 2 0 6 0;
#X connect 3 0 7 0;
#X connect 6 0 0 1;
#X connect 6 0 8 1;
#X connect 6 0 9 1;
#X connect 6 0 10 1;
#X connect 6 0 11 1;
#X connect 7 0 0 2;
#X connect 7 1 0 3;
#X connect 7 2 0 4;
#X connect 7 3 8 2;
#X connect 7 4 8 3;
#X connect 7 5 8 4;
#X connect 7 6 9 2;
#X connect 7 7 9 3;
#X connect 7 8 9 4;
#X connect 7 9 10 2;
#X connect 7 10 10 3;
#X connect 7 11 10 4;
#X connect 7 12 11 2;
#X connect 7 13 11 3;
#X connect 7 14 11 4;
#X connect 8 0 1 0;
#X connect 9 0 1 0;
#X connect 10 0 1 0;
#X connect 11 0 1 0;
#X connect 12 0 17 0;
#X connect 13 0 17 1;
#X connect 14 0 13 0;
#X connect 15 0 13 0;
#X connect 16 0 14 0;
#X connect 16 1 15 0;
#X connect 16 2 15 1;
#X connect 17 0 0 0;
#X connect 17 0 8 0;
#X connect 17 0 9 0;
#X connect 17 0 10 0;
#X connect 17 0 11 0;
#X connect 18 0 16 0;
#X restore 82 680 pd monomode;
#X obj 198 156 nbx 3 14 0 127 0 1 empty empty empty 0 -8 0 10 -262144
-1 -1 66 256;
#X obj 720 -24 / 1000;
#X obj 722 -46 random 1000;
#X obj 724 23 / 1000;
#X obj 726 1 random 1000;
#X obj 734 71 / 1000;
#X obj 736 49 random 1000;
#X obj -99 746 outlet~;
#X obj -315 131 inlet;
#X obj -276 130 inlet;
#X obj -235 130 inlet;
#X obj -208 160 inlet;
#X obj -169 159 inlet;
#X obj -128 159 inlet;
#X obj -80 185 inlet;
#X obj -41 184 inlet;
#X obj 0 184 inlet;
#X obj 390 -137 unpack f f f f f f f f f;
#X obj 396 -171 inlet;
#X text -191 129 triggers (0..1);
#X text 395 -196 scale;
#X obj 613 -162 inlet;
#X text 614 -181 tp;
#X obj -125 334 +;
#X obj -95 362 +;
#X obj -59 389 +;
#X obj 4 268 t b f;
#X obj -7 447 +;
#X obj 23 475 +;
#X obj 59 502 +;
#X obj 83 569 +;
#X obj 113 597 +;
#X obj 149 624 +;
#X obj -3 -399 random 32;
#X obj 5 -331 - 16;
#X msg 219 -450 32;
#X obj 237 -418 /;
#X obj 265 -448 pow -1;
#X obj 225 -479 t b f;
#X obj 42 -375 t f f;
#X obj 41 -352 * 0.5;
#X obj 6 -309 /;
#X obj 14 -286 +;
#X obj 4 -427 t b b;
#X obj 258 122 nbx 3 14 1 8 0 1 empty empty rat -20 7 0 10 -262144
-1 -1 2 256;
#X obj 318 122 nbx 3 14 0 99 0 1 empty empty fin -20 7 0 10 -262144
-1 -1 0 256;
#X obj 184 -367 * 10;
#X obj 66 -328 random;
#X obj -114 -333 random 32;
#X obj -106 -265 - 16;
#X obj -69 -309 t f f;
#X obj -70 -286 * 0.5;
#X obj -105 -243 /;
#X obj -97 -220 +;
#X obj -107 -361 t b b;
#X obj -45 -262 random;
#X obj 58 -300 / 10000;
#X obj -53 -234 / 10000;
#X obj -190 -248 random 32;
#X obj -182 -180 - 16;
#X obj -145 -224 t f f;
#X obj -146 -201 * 0.5;
#X obj -181 -158 /;
#X obj -173 -135 +;
#X obj -183 -276 t b b;
#X obj -121 -177 random;
#X obj -129 -149 / 10000;
#X obj -271 -162 random 32;
#X obj -263 -94 - 16;
#X obj -226 -138 t f f;
#X obj -227 -115 * 0.5;
#X obj -262 -72 /;
#X obj -254 -49 +;
#X obj -264 -190 t b b;
#X obj -202 -91 random;
#X obj -210 -63 / 10000;
#X obj -347 -77 random 32;
#X obj -339 -9 - 16;
#X obj -302 -53 t f f;
#X obj -303 -30 * 0.5;
#X obj -338 13 /;
#X obj -330 36 +;
#X obj -340 -105 t b b;
#X obj -278 -6 random;
#X obj -286 22 / 10000;
#X text -190 -399 random ratios;
#X text 748 -177 random levels;
#X obj 68 381 delay 3;
#X obj 137 -208 inlet;
#X obj 137 -172 unpack f f f f f;
#X obj 271 -205 inlet;
#X obj 271 -169 unpack f f f f f;
#X connect 0 0 25 0;
#X connect 1 0 18 1;
#X connect 1 0 128 0;
#X connect 2 0 18 2;
#X connect 2 0 128 0;
#X connect 3 0 17 1;
#X connect 3 0 128 0;
#X connect 4 0 18 4;
#X connect 4 0 128 0;
#X connect 5 0 18 5;
#X connect 5 0 128 0;
#X connect 6 0 18 3;
#X connect 6 0 128 0;
#X connect 7 0 18 7;
#X connect 7 0 128 0;
#X connect 8 0 18 8;
#X connect 8 0 128 0;
#X connect 9 0 18 6;
#X connect 9 0 128 0;
#X connect 10 0 18 10;
#X connect 10 0 128 0;
#X connect 11 0 18 11;
#X connect 11 0 128 0;
#X connect 12 0 18 9;
#X connect 12 0 128 0;
#X connect 13 0 18 13;
#X connect 13 0 128 0;
#X connect 14 0 18 14;
#X connect 14 0 128 0;
#X connect 15 0 18 12;
#X connect 15 0 128 0;
#X connect 16 0 84 0;
#X connect 16 0 95 0;
#X connect 16 0 105 0;
#X connect 16 0 114 0;
#X connect 16 0 123 0;
#X connect 17 0 18 0;
#X connect 18 0 0 2;
#X connect 18 0 26 2;
#X connect 18 0 28 2;
#X connect 18 0 30 2;
#X connect 18 0 32 2;
#X connect 18 0 34 2;
#X connect 18 0 36 2;
#X connect 18 0 38 2;
#X connect 18 0 40 2;
#X connect 19 0 21 0;
#X connect 19 0 23 0;
#X connect 19 0 43 0;
#X connect 19 0 45 0;
#X connect 19 0 47 0;
#X connect 20 0 3 0;
#X connect 21 0 20 0;
#X connect 22 0 6 0;
#X connect 23 0 22 0;
#X connect 24 0 64 0;
#X connect 25 0 48 0;
#X connect 26 0 25 0;
#X connect 27 0 65 0;
#X connect 28 0 25 0;
#X connect 29 0 66 0;
#X connect 30 0 25 0;
#X connect 31 0 68 0;
#X connect 32 0 25 0;
#X connect 33 0 69 0;
#X connect 34 0 25 0;
#X connect 35 0 70 0;
#X connect 36 0 25 0;
#X connect 37 0 71 0;
#X connect 38 0 25 0;
#X connect 39 0 72 0;
#X connect 40 0 25 0;
#X connect 41 0 73 0;
#X connect 42 0 9 0;
#X connect 43 0 42 0;
#X connect 44 0 12 0;
#X connect 45 0 44 0;
#X connect 46 0 15 0;
#X connect 47 0 46 0;
#X connect 49 0 26 0;
#X connect 50 0 28 0;
#X connect 51 0 0 0;
#X connect 52 0 30 0;
#X connect 53 0 32 0;
#X connect 54 0 34 0;
#X connect 55 0 36 0;
#X connect 56 0 38 0;
#X connect 57 0 40 0;
#X connect 58 0 24 0;
#X connect 58 1 27 0;
#X connect 58 2 29 0;
#X connect 58 3 31 0;
#X connect 58 4 33 0;
#X connect 58 5 35 0;
#X connect 58 6 37 0;
#X connect 58 7 39 0;
#X connect 58 8 41 0;
#X connect 59 0 58 0;
#X connect 62 0 67 0;
#X connect 64 0 26 1;
#X connect 65 0 28 1;
#X connect 66 0 0 1;
#X connect 67 0 64 0;
#X connect 67 0 65 0;
#X connect 67 0 66 0;
#X connect 67 0 68 0;
#X connect 67 0 69 0;
#X connect 67 0 70 0;
#X connect 67 0 71 0;
#X connect 67 0 72 0;
#X connect 67 0 73 0;
#X connect 67 1 64 1;
#X connect 67 1 65 1;
#X connect 67 1 66 1;
#X connect 67 1 68 1;
#X connect 67 1 69 1;
#X connect 67 1 70 1;
#X connect 67 1 71 1;
#X connect 67 1 72 1;
#X connect 67 1 73 1;
#X connect 68 0 30 1;
#X connect 69 0 32 1;
#X connect 70 0 34 1;
#X connect 71 0 36 1;
#X connect 72 0 38 1;
#X connect 73 0 40 1;
#X connect 74 0 75 0;
#X connect 75 0 82 0;
#X connect 76 0 77 0;
#X connect 77 0 80 0;
#X connect 77 0 91 0;
#X connect 77 0 101 0;
#X connect 77 0 110 0;
#X connect 77 0 119 0;
#X connect 78 0 77 1;
#X connect 79 0 76 0;
#X connect 79 1 78 0;
#X connect 80 0 81 0;
#X connect 80 1 74 1;
#X connect 81 0 75 1;
#X connect 82 0 83 0;
#X connect 83 0 2 0;
#X connect 84 0 74 0;
#X connect 84 1 88 0;
#X connect 85 0 79 0;
#X connect 85 0 82 1;
#X connect 85 0 93 1;
#X connect 85 0 103 1;
#X connect 85 0 112 1;
#X connect 85 0 121 1;
#X connect 86 0 87 0;
#X connect 87 0 88 1;
#X connect 87 0 96 1;
#X connect 87 0 106 1;
#X connect 87 0 115 1;
#X connect 87 0 124 1;
#X connect 88 0 97 0;
#X connect 89 0 90 0;
#X connect 90 0 93 0;
#X connect 91 0 92 0;
#X connect 91 1 89 1;
#X connect 92 0 90 1;
#X connect 93 0 94 0;
#X connect 94 0 5 0;
#X connect 95 0 89 0;
#X connect 95 1 96 0;
#X connect 96 0 98 0;
#X connect 97 0 83 1;
#X connect 98 0 94 1;
#X connect 99 0 100 0;
#X connect 100 0 103 0;
#X connect 101 0 102 0;
#X connect 101 1 99 1;
#X connect 102 0 100 1;
#X connect 103 0 104 0;
#X connect 104 0 8 0;
#X connect 105 0 99 0;
#X connect 105 1 106 0;
#X connect 106 0 107 0;
#X connect 107 0 104 1;
#X connect 108 0 109 0;
#X connect 109 0 112 0;
#X connect 110 0 111 0;
#X connect 110 1 108 1;
#X connect 111 0 109 1;
#X connect 112 0 113 0;
#X connect 113 0 11 0;
#X connect 114 0 108 0;
#X connect 114 1 115 0;
#X connect 115 0 116 0;
#X connect 116 0 113 1;
#X connect 117 0 118 0;
#X connect 118 0 121 0;
#X connect 119 0 120 0;
#X connect 119 1 117 1;
#X connect 120 0 118 1;
#X connect 121 0 122 0;
#X connect 122 0 14 0;
#X connect 123 0 117 0;
#X connect 123 1 124 0;
#X connect 124 0 125 0;
#X connect 125 0 122 1;
#X connect 128 0 17 0;
#X connect 128 0 24 0;
#X connect 128 0 27 0;
#X connect 128 0 29 0;
#X connect 128 0 31 0;
#X connect 128 0 33 0;
#X connect 128 0 35 0;
#X connect 128 0 37 0;
#X connect 128 0 39 0;
#X connect 128 0 41 0;
#X connect 129 0 130 0;
#X connect 130 0 3 0;
#X connect 130 1 6 0;
#X connect 130 2 9 0;
#X connect 130 3 12 0;
#X connect 130 4 15 0;
#X connect 131 0 132 0;
#X connect 132 0 1 0;
#X connect 132 1 4 0;
#X connect 132 2 7 0;
#X connect 132 3 10 0;
#X connect 132 4 13 0;
#X coords 0 -1 1 1 280 160 1 100 100;
#X restore 594 706 pd 9drums;
#X msg 1294 302 48 50 57 58 60 62 64 65 69;
#N canvas 686 116 1083 868 probabilities 0;
#N canvas 0 50 450 300 (subpatch) 0;
#X array \$0probs 16 float 3;
#A 0 100 50 100 50 100 50 100 50 100 50 100 50 100 50 100 50;
#X coords 0 100 16 0 320 100 1 0 0;
#X restore 105 118 graph;
#X obj -11 22 inlet;
#X obj 10 488 outlet;
#X obj 491 223 \$0;
#X obj 499 244 pack f f;
#X obj 476 194 t b f;
#X obj 549 -12 \$0;
#X obj 557 9 pack f f;
#X obj 575 -51 t b f;
#X obj 415 63 float;
#X obj 397 102 nbx 2 14 2 32 0 1 empty empty len -20 7 0 10 -262144
-1 -1 16 256;
#X msg 500 267 \; \$1probs resize \$2;
#X obj -5 309 tabread \$0probs;
#X obj -4 90 mod;
#X obj 108 220 hsl 315 8 0 1 0 0 empty empty empty -2 -8 0 10 -262144
-1 -1 21587 1;
#X obj 17 117 /;
#X obj 53 367 random 1000;
#X obj -1 48 t f b;
#X obj 7 454 select 0;
#X obj 53 387 / 10;
#X obj 19 422 <=;
#X obj -6 349 *;
#X obj 261 104 hsl 100 8 0 100 0 1 empty empty dns -25 6 0 10 -262144
-1 -1 4950 1;
#X obj 197 298 pow;
#X obj 194 242 t b f;
#X msg 193 270 2;
#X text 69 -81 trigger probabilities sequencer \, up to 32 step pattern
;
#X text -7 5 songpos;
#X obj 187 103 bng 12 250 50 0 empty empty clr 17 7 0 10 -258113 -1
-1;
#X msg 558 32 \; \$1probs const 0;
#X obj 80 -16 inlet;
#X obj 80 35 array set \$0probs;
#X obj 311 -30 inlet;
#X obj 218 -30 inlet;
#X connect 1 0 17 0;
#X connect 3 0 4 0;
#X connect 4 0 11 0;
#X connect 5 0 3 0;
#X connect 5 1 4 1;
#X connect 6 0 7 0;
#X connect 7 0 29 0;
#X connect 8 0 6 0;
#X connect 8 1 7 1;
#X connect 9 0 5 0;
#X connect 10 0 9 0;
#X connect 10 0 13 1;
#X connect 10 0 15 1;
#X connect 12 0 21 0;
#X connect 13 0 12 0;
#X connect 13 0 15 0;
#X connect 15 0 14 0;
#X connect 16 0 19 0;
#X connect 17 0 13 0;
#X connect 17 1 16 0;
#X connect 18 0 2 0;
#X connect 19 0 20 1;
#X connect 20 0 18 0;
#X connect 21 0 20 0;
#X connect 22 0 24 0;
#X connect 23 0 21 1;
#X connect 24 0 25 0;
#X connect 24 1 23 1;
#X connect 25 0 23 0;
#X connect 28 0 8 0;
#X connect 30 0 31 0;
#X connect 32 0 10 0;
#X connect 33 0 22 0;
#X coords 0 100 16 0 330 130 2 100 100;
#X restore 457 219 pd probabilities;
#X text 1463 300 hang like;
#X obj 396 629 route 0 1 2 3 4 5 6 7 8;
#N canvas 495 95 486 449 swingpos 0;
#X obj 221 225 mod 2;
#X obj 188 302 delay 0;
#X obj 217 276 *;
#X obj 302 185 *;
#X obj 219 199 t b f f;
#X obj 82 119 hsl 100 8 0 100 0 1 empty empty empty -33 4 0 10 -262144
-1 -1 4950 1;
#X obj 229 330 int;
#X obj 199 32 inlet;
#X obj 371 17 inlet;
#X text 211 49 pos;
#X text 383 33 bpm;
#X text 71 133 swing factor;
#X obj 229 359 outlet;
#X msg 365 86 1;
#X obj 377 111 /;
#X obj 368 63 t f f;
#X obj 387 134 * 15000;
#X text 303 133 1/16 in ms;
#X obj 47 35 inlet;
#X connect 0 0 2 0;
#X connect 1 0 6 0;
#X connect 2 0 1 1;
#X connect 3 0 2 1;
#X connect 4 0 1 0;
#X connect 4 1 0 0;
#X connect 4 2 6 1;
#X connect 5 0 3 0;
#X connect 6 0 12 0;
#X connect 7 0 4 0;
#X connect 8 0 15 0;
#X connect 13 0 14 0;
#X connect 14 0 16 0;
#X connect 15 0 13 0;
#X connect 15 1 14 1;
#X connect 16 0 3 1;
#X connect 18 0 5 0;
#X coords 0 -1 1 1 115 30 1 75 100;
#X restore 454 181 pd swingpos;
#N canvas 542 71 1184 711 songpos96-16 0;
#X obj 318 440 + 1;
#X obj 267 436 float;
#X msg 206 296 1;
#X obj 218 321 /;
#X obj 209 273 t f f;
#X obj 228 344 * 15000;
#X obj 339 355 t b f;
#X obj 263 405 metro 125;
#X msg 340 329 -2;
#X obj 172 17 loadbang;
#X floatatom 126 113 5 30 300 0 bpm - -;
#X msg -2 85 set \$1;
#X msg 5 139 160;
#X obj 174 112 bng 15 250 50 0 empty empty empty 6 7 0 10 -261234 -1
-1;
#X obj 278 636 outlet;
#X obj 570 496 outlet;
#X text 618 497 bpm->;
#X obj 200 112 bng 15 50 20 0 empty empty empty 6 7 0 10 -204786 -1
-1;
#X obj 208 225 float;
#X obj 435 539 outlet;
#X text 144 343 1/16 in ms;
#X text 485 540 pos96->;
#X obj 259 373 / 6;
#X text 219 371 1/96;
#X obj 280 481 / 6;
#X obj 280 505 int;
#X obj 279 530 change;
#X obj 600 64 + 1;
#X obj 602 29 float;
#X obj 600 96 moses 2;
#X obj 600 155 timer;
#X obj 600 123 t b;
#X obj 648 122 t b b;
#X obj 653 243 /;
#X msg 623 221 60000;
#X obj 618 183 t b f;
#X obj 656 268 moses 10;
#X text 500 72 beatcounter;
#X obj 772 358 float;
#X obj 769 401 + 1;
#X obj 688 426 +;
#X obj 729 396 *;
#X obj 705 328 t f b;
#X obj 698 464 /;
#X msg 884 211 0;
#X text 499 302 mean (as seen on idafx blog);
#X obj 864 324 t f f;
#X obj 921 503 moses 0.1;
#X text 880 303 reset;
#X obj 870 366 /;
#X obj 849 431 < 0.75;
#X obj 903 435 > 1.25;
#X obj 869 391 t f f;
#X obj 877 471 ||;
#X obj 174 54 t b b b;
#X obj 43 -7 inlet;
#X obj 110 -8 inlet;
#X text 329 637 pos16->;
#X text 46 14 sync;
#X text 111 10 tap;
#X obj 2 22 inlet;
#X connect 0 0 1 1;
#X connect 0 0 24 0;
#X connect 0 0 19 0;
#X connect 1 0 0 0;
#X connect 2 0 3 0;
#X connect 3 0 5 0;
#X connect 4 0 2 0;
#X connect 4 1 3 1;
#X connect 5 0 22 0;
#X connect 6 0 7 0;
#X connect 6 1 1 0;
#X connect 7 0 1 0;
#X connect 8 0 6 0;
#X connect 9 0 54 0;
#X connect 10 0 11 0;
#X connect 10 0 18 1;
#X connect 10 0 13 0;
#X connect 11 0 12 0;
#X connect 12 0 10 0;
#X connect 13 0 8 0;
#X connect 13 0 18 0;
#X connect 17 0 28 0;
#X connect 18 0 4 0;
#X connect 18 0 15 0;
#X connect 22 0 7 1;
#X connect 24 0 25 0;
#X connect 25 0 26 0;
#X connect 26 0 14 0;
#X connect 27 0 28 1;
#X connect 27 0 29 0;
#X connect 28 0 27 0;
#X connect 29 0 31 0;
#X connect 29 1 32 0;
#X connect 30 0 35 0;
#X connect 30 0 46 0;
#X connect 31 0 30 0;
#X connect 32 0 30 0;
#X connect 32 1 30 1;
#X connect 33 0 36 0;
#X connect 34 0 33 0;
#X connect 35 0 34 0;
#X connect 35 1 33 1;
#X connect 36 1 42 0;
#X connect 38 0 39 0;
#X connect 38 0 41 0;
#X connect 39 0 38 1;
#X connect 39 0 43 1;
#X connect 40 0 43 0;
#X connect 41 0 40 1;
#X connect 42 0 40 0;
#X connect 42 1 38 0;
#X connect 43 0 41 1;
#X connect 43 0 10 0;
#X connect 44 0 38 1;
#X connect 44 0 28 1;
#X connect 46 0 49 1;
#X connect 46 1 49 0;
#X connect 47 1 44 0;
#X connect 49 0 52 0;
#X connect 50 0 53 0;
#X connect 51 0 53 1;
#X connect 52 0 50 0;
#X connect 52 1 51 0;
#X connect 53 0 47 0;
#X connect 54 0 13 0;
#X connect 54 1 13 0;
#X connect 54 2 12 0;
#X connect 55 0 13 0;
#X connect 56 0 17 0;
#X connect 60 0 10 0;
#X coords 0 -1 1 1 120 30 1 100 100;
#X restore 476 139 pd songpos96-16;
#N canvas -8 -8 1920 997 noteproba 0;
#X obj 145 329 moses;
#X obj 168 115 vsl 8 100 0 100 0 1 empty empty empty 0 -9 0 10 -262144
-1 -1 9900 1;
#X obj 191 350 moses;
#X obj 183 115 vsl 8 100 0 100 0 1 empty empty empty 0 -9 0 10 -262144
-1 -1 4950 1;
#X obj 274 307 +;
#X obj 296 328 +;
#X obj 198 115 vsl 8 100 0 100 0 1 empty empty empty 0 -9 0 10 -262144
-1 -1 9900 1;
#X obj 239 376 moses;
#X obj 97 272 delay 1;
#X obj 562 440 random;
#X obj 316 354 +;
#X obj 284 401 moses;
#X obj 213 115 vsl 8 100 0 100 0 1 empty empty empty 0 -9 0 10 -262144
-1 -1 9900 1;
#X obj 228 115 vsl 8 100 0 100 0 1 empty empty empty 0 -9 0 10 -262144
-1 -1 4950 1;
#X obj 243 115 vsl 8 100 0 100 0 1 empty empty empty 0 -9 0 10 -262144
-1 -1 9900 1;
#X obj 342 378 +;
#X obj 324 431 moses;
#X obj 370 408 +;
#X obj 371 456 moses;
#X obj 416 440 +;
#X obj 406 484 moses;
#X obj 258 115 vsl 8 100 0 100 0 1 empty empty empty 0 -9 0 10 -262144
-1 -1 9900 1;
#X obj 273 115 vsl 8 100 0 100 0 1 empty empty empty 0 -9 0 10 -262144
-1 -1 4950 1;
#X obj 288 115 vsl 8 100 0 100 0 1 empty empty empty 0 -9 0 10 -262144
-1 -1 9900 1;
#X obj 441 461 +;
#X obj 446 514 moses;
#X obj 492 491 +;
#X obj 493 539 moses;
#X msg 124 429 0;
#X msg 166 453 1;
#X msg 209 475 2;
#X msg 251 499 3;
#X obj 51 48 inlet;
#X msg 290 511 4;
#X msg 332 535 5;
#X msg 375 557 6;
#X msg 417 581 7;
#X msg 460 595 8;
#X obj 500 96 moses;
#X obj 546 117 moses;
#X obj 594 143 moses;
#X obj 112 134 hsl 50 15 0 100 0 1 empty empty 1 -10 7 0 10 -262144
-1 -1 4900 1;
#X obj 502 153 +;
#X obj 534 182 +;
#X obj 112 154 hsl 50 15 0 100 0 1 empty empty 2 -10 7 0 10 -262144
-1 -1 2450 1;
#X obj 112 174 hsl 50 15 0 100 0 1 empty empty 3 -10 7 0 10 -262144
-1 -1 0 1;
#X obj 639 215 random;
#X obj 337 77 delay 1;
#X msg 479 196 1;
#X msg 521 220 2;
#X msg 564 242 3;
#X obj 635 349 until;
#X obj 104 855 outlet;
#X obj 99 794 pack f f;
#X obj 694 500 random 128;
#X obj 693 75 t b b;
#X text 101 117 nr. notes;
#X text 215 99 trig nr;
#N canvas 0 50 450 250 (subpatch) 0;
#X array \$0lvls 128 float 3;
#A 0 0.0816591 0.0816591 0.0816591 0.0816591 0.0816591 0.0816591 0.0816591
0.0816591 0.0816591 0.0816591 0.0816591 0.0816591 0.0816591 0.0816591
0.0816591 0.0816591 0.0816591 0.0816591 0.0816591 0.0816591 0.0816591
0.0816591 0.0816591 0.0816591 0.0816591 0.0816591 0.0816591 0.0816591
0.0816591 0.0816591 0.0816591 0.0816591 0.0816591 0.0816591 0.0816591
0.0816591 0.0816591 0.0816591 0.0927702 0.0927702 0.0927702 0.0983258
0.103881 0.103881 0.114993 0.114993 0.114993 0.114993 0.114993 0.114993
0.114993 0.114993 0.114993 0.120548 0.126104 0.137215 0.159437 0.187215
0.192771 0.192771 0.203882 0.214993 0.226104 0.23166 0.237215 0.270549
0.303882 0.326105 0.326105 0.326105 0.353883 0.359438 0.403883 0.426105
0.426105 0.448328 0.481661 0.776107 0.781662 0.792773 0.798329 0.803885
0.814996 0.814996 0.831662 0.837218 0.848329 0.864996 0.870551 0.870551
0.876107 0.881662 0.892774 0.892774 0.892774 0.892774 0.903885 0.90944
0.914996 0.926107 0.926107 0.926107 0.937218 0.937218 0.937218 0.937218
0.948329 0.948329 0.948329 0.948329 0.948329 0.948329 0.95944 0.95944
0.95944 0.95944 0.95944 0.95944 0.95944 0.95944 0.95944 0.95944 0.95944
0.95944 0.95944 0.95944 0.95944 0.95944;
#X coords 0 1 128 0 90 90 1 0 0;
#X restore 303 126 graph;
#X obj 695 525 tabread \$0lvls;
#X text 346 310 distribute probs for 9 sounds/trigs;
#X text 427 73 distrib. for up to 3 simultanous notes;
#X text 722 480 velocity ransom distribution from table;
#X text 24 7 per step parameter probabilities: nr of notes \, note
(instrument) nr \, velocity level selection;
#X obj 576 23 inlet;
#X obj 169 72 unpack f f f f f f f f f;
#X obj 134 45 inlet;
#X obj 179 43 inlet;
#X obj 220 42 inlet;
#X connect 0 0 28 0;
#X connect 0 1 2 0;
#X connect 1 0 0 1;
#X connect 1 0 4 0;
#X connect 1 0 8 0;
#X connect 2 0 29 0;
#X connect 2 1 7 0;
#X connect 3 0 4 1;
#X connect 3 0 8 0;
#X connect 4 0 5 0;
#X connect 4 0 2 1;
#X connect 5 0 7 1;
#X connect 5 0 10 0;
#X connect 6 0 5 1;
#X connect 6 0 8 0;
#X connect 7 0 30 0;
#X connect 7 1 11 0;
#X connect 8 0 4 0;
#X connect 9 0 0 0;
#X connect 10 0 11 1;
#X connect 10 0 15 0;
#X connect 11 0 31 0;
#X connect 11 1 16 0;
#X connect 12 0 10 1;
#X connect 12 0 8 0;
#X connect 13 0 15 1;
#X connect 13 0 8 0;
#X connect 14 0 8 0;
#X connect 14 0 17 1;
#X connect 15 0 16 1;
#X connect 15 0 17 0;
#X connect 16 0 33 0;
#X connect 16 1 18 0;
#X connect 17 0 18 1;
#X connect 17 0 19 0;
#X connect 18 0 34 0;
#X connect 18 1 20 0;
#X connect 19 0 20 1;
#X connect 19 0 24 0;
#X connect 20 0 35 0;
#X connect 20 1 25 0;
#X connect 21 0 19 1;
#X connect 21 0 8 0;
#X connect 22 0 24 1;
#X connect 22 0 8 0;
#X connect 23 0 26 1;
#X connect 23 0 8 0;
#X connect 24 0 25 1;
#X connect 24 0 26 0;
#X connect 25 0 36 0;
#X connect 25 1 27 0;
#X connect 26 0 27 1;
#X connect 26 0 9 1;
#X connect 27 0 37 0;
#X connect 28 0 53 0;
#X connect 29 0 53 0;
#X connect 30 0 53 0;
#X connect 31 0 53 0;
#X connect 32 0 55 0;
#X connect 33 0 53 0;
#X connect 34 0 53 0;
#X connect 35 0 53 0;
#X connect 36 0 53 0;
#X connect 37 0 53 0;
#X connect 38 0 48 0;
#X connect 38 1 39 0;
#X connect 39 0 49 0;
#X connect 39 1 40 0;
#X connect 40 0 50 0;
#X connect 41 0 38 1;
#X connect 41 0 42 0;
#X connect 41 0 47 0;
#X connect 42 0 43 0;
#X connect 42 0 39 1;
#X connect 43 0 46 1;
#X connect 43 0 40 1;
#X connect 44 0 42 1;
#X connect 44 0 47 0;
#X connect 45 0 47 0;
#X connect 45 0 43 1;
#X connect 46 0 38 0;
#X connect 47 0 42 0;
#X connect 48 0 51 0;
#X connect 49 0 51 0;
#X connect 50 0 51 0;
#X connect 51 0 9 0;
#X connect 53 0 52 0;
#X connect 54 0 59 0;
#X connect 55 0 46 0;
#X connect 55 1 54 0;
#X connect 59 0 53 1;
#X connect 64 0 65 0;
#X connect 65 0 1 0;
#X connect 65 1 3 0;
#X connect 65 2 6 0;
#X connect 65 3 12 0;
#X connect 65 4 13 0;
#X connect 65 5 14 0;
#X connect 65 6 21 0;
#X connect 65 7 22 0;
#X connect 65 8 23 0;
#X connect 66 0 41 0;
#X connect 67 0 44 0;
#X connect 68 0 45 0;
#X coords 0 -1 1 1 300 120 1 100 100;
#X restore 396 475 pd noteproba;
#X floatatom 1260 604 5 0 0 0 - - -;
#X text 1523 363 penta min;
#X text 1505 342 penta maj;
#X msg 1334 345 48 50 52 55 57 60 62 64 67;
#X msg 1354 366 48 51 53 55 58 60 63 65 67;
#X text 1483 322 hang like deep sky;
#X msg 1314 324 48 51 55 58 60 62 63 65 70;
#N canvas 43 128 1015 640 mym2schorus 0;
#X obj 23 59 inlet~;
#X obj 466 487 outlet~;
#X obj 295 500 outlet~;
#X obj 197 264 cos~;
#X obj 197 291 +~ 1;
#X obj 290 225 +~ 0.25;
#X obj 304 254 cos~;
#X obj 309 284 +~ 1;
#X obj 369 69 phasor~;
#X obj 354 -14 loadbang;
#X msg 355 20 0.8;
#X obj 145 407 vd~ \$0mychr1;
#X obj 298 371 vd~ \$0mychr1;
#X obj 311 318 *~ 0.3;
#X obj 418 232 cos~;
#X obj 423 262 +~ 1;
#X obj 412 349 vd~ \$0mychr1;
#X obj 425 296 *~ 0.3;
#X obj 24 101 delwrite~ \$0mychr1 100;
#X obj 404 203 +~ 0.5;
#X obj 522 250 cos~;
#X obj 527 280 +~ 1;
#X obj 516 367 vd~ \$0mychr1;
#X obj 508 221 +~ 0.75;
#X obj 530 315 *~ 0.31;
#X obj 194 318 *~ 0.31;
#X connect 0 0 18 0;
#X connect 3 0 4 0;
#X connect 4 0 25 0;
#X connect 5 0 6 0;
#X connect 6 0 7 0;
#X connect 7 0 13 0;
#X connect 8 0 3 0;
#X connect 8 0 5 0;
#X connect 8 0 19 0;
#X connect 8 0 23 0;
#X connect 9 0 10 0;
#X connect 10 0 8 0;
#X connect 11 0 2 0;
#X connect 12 0 1 0;
#X connect 13 0 12 0;
#X connect 14 0 15 0;
#X connect 15 0 17 0;
#X connect 16 0 2 0;
#X connect 17 0 16 0;
#X connect 19 0 14 0;
#X connect 20 0 21 0;
#X connect 21 0 24 0;
#X connect 22 0 1 0;
#X connect 23 0 20 0;
#X connect 24 0 22 0;
#X connect 25 0 11 0;
#X restore 594 882 pd mym2schorus;
#X text 13 8 random percussion with trigger-probabilitiy controlled
by a sequencer;
#X text 14 35 2013 martin brinkmann;
#X obj 476 92 float;
#X msg 476 59 120;
#X msg 1261 517 1;
#X obj 1260 553 float;
#X obj 1260 578 t f;
#X msg 1294 516 2;
#X msg 1294 171 1;
#X msg 1328 171 2;
#X msg 1363 171 3;
#X floatatom 1294 203 5 0 0 0 - - -;
#X obj 1294 239 float;
#X msg 1257 171 0;
#X obj 1294 273 select 0 1 2 3;
#X msg 709 103 100 50 100 50 100 50 100 50 100 50 100 50 100 50 100
50;
#X msg 888 179 16;
#X msg 851 179 15;
#X msg 690 77 100 25 100 25 100 25 100 25 100 25 100 25 100 25 100
25;
#X msg 792 407 100 50 100 100 50 100 100 50 100;
#X msg 1373 390 48 51 54 48 51 54 60 63 66;
#X msg 516 59 140;
#X msg 554 59 160;
#X msg 670 52 100 0 100 0 100 0 100 0 100 0 100 0 100 0 100 0 100;
#X floatatom 396 142 5 0 0 0 - - -;
#X floatatom 672 193 5 0 0 0 - - -;
#X floatatom 542 423 5 0 0 0 - - -;
#X floatatom 615 423 5 0 0 0 - - -;
#X floatatom 469 424 5 0 0 0 - - -;
#X msg 652 650 0 0 0.5 0 0;
#X text 473 38 BPM Any Value;
#X text 668 10 Probability of Ryhthm within the loop Array of numbers
(1-100) that are >= the length of the loop;
#X text 807 155 Overall Length of the Loop (1-32);
#X text 362 123 Swing % (1- 100);
#X text 466 393 The Probability that 1 \, 2 \, or 3 notes can be player
Simultaneously (0-100);
#X text 790 373 Probabilities that a given note will be played during
the looping: 9 values (0 - 100);
#X text 1254 134 Module that selects the notes/scale that the sequencer
uses. Different integer values result in different scales.;
#X text 1258 485 Module to Pitch Shift the entire loop Up and Down
Values can vary.;
#X text 588 605 Volume control on all insturments: L Top \, L Bot \,
R Top \, R Mid \, R Bot 5 values(0-1), f 35;
#X msg 821 532 0 0 7500 0 0;
#X text 820 487 Note Length control on all insturments: L Top \, L
Bot \, R Top \, R Mid \, R Bot 5 values(0-10000), f 35;
#X text 628 175 Density of loop Ryhthmically (1-100);
#X floatatom 698 908 5 0 0 0 - - -;
#X obj 698 933 dbtorms;
#X floatatom 698 963 5 0 0 0 - - -;
#X obj 595 927 *~ 0;
#X msg 800 876 100;
#X text 753 914 Master Volume (Range is around 60-100);
#X msg 693 875 60;
#X msg 727 876 74;
#X msg 765 876 88;
#X msg 835 876 110;
#X connect 1 0 16 0;
#X connect 2 0 1 11;
#X connect 3 0 8 0;
#X connect 5 0 1 0;
#X connect 5 1 1 1;
#X connect 5 2 1 2;
#X connect 5 3 1 3;
#X connect 5 4 1 4;
#X connect 5 5 1 5;
#X connect 5 6 1 6;
#X connect 5 7 1 7;
#X connect 5 8 1 8;
#X connect 6 0 3 0;
#X connect 7 0 6 1;
#X connect 7 2 6 2;
#X connect 8 0 5 0;
#X connect 9 0 1 12;
#X connect 12 0 1 11;
#X connect 13 0 1 11;
#X connect 15 0 1 11;
#X connect 16 0 62 0;
#X connect 16 1 62 0;
#X connect 19 0 7 0;
#X connect 20 0 19 0;
#X connect 21 0 22 0;
#X connect 22 0 23 0;
#X connect 23 0 9 0;
#X connect 24 0 22 0;
#X connect 25 0 28 0;
#X connect 26 0 28 0;
#X connect 27 0 28 0;
#X connect 28 0 29 0;
#X connect 29 0 31 0;
#X connect 30 0 28 0;
#X connect 31 0 2 0;
#X connect 31 1 15 0;
#X connect 31 2 12 0;
#X connect 31 3 13 0;
#X connect 31 4 37 0;
#X connect 32 0 3 1;
#X connect 33 0 3 3;
#X connect 34 0 3 3;
#X connect 35 0 3 1;
#X connect 36 0 8 4;
#X connect 37 0 1 11;
#X connect 38 0 19 0;
#X connect 39 0 19 0;
#X connect 40 0 3 1;
#X connect 41 0 6 0;
#X connect 42 0 3 2;
#X connect 43 0 8 2;
#X connect 44 0 8 3;
#X connect 45 0 8 1;
#X connect 46 0 1 9;
#X connect 56 0 1 10;
#X connect 59 0 60 0;
#X connect 60 0 61 0;
#X connect 61 0 62 1;
#X connect 62 0 0 0;
#X connect 62 0 0 1;
#X connect 63 0 59 0;
#X connect 65 0 59 0;
#X connect 66 0 59 0;
#X connect 67 0 59 0;
#X connect 68 0 59 0;
